<svg width="24" height="24" viewBox="0 0 24 24" fill="none" xmlns="http://www.w3.org/2000/svg">
<path d="M19 22H6V2H19C20.1 2 21 2.9 21 4V20C21 21.1 20.1 22 19 22Z" fill="#1454A5"/>
<path d="M5 2H6V22H5C3.9 22 3 21.1 3 20V4C3 2.9 3.9 2 5 2Z" fill="#E77817"/>
<path d="M18.0006 12.1C17.9506 14.5 16.4506 15.55 15.3506 15.45C15.0506 15.4 14.3006 15.4 13.9006 14.65C13.5006 15.15 13.0006 15.45 12.3506 15.45C11.0506 15.45 10.7006 14.2 10.6506 13.9C10.6006 13.55 10.5506 13.2 10.6006 12.8C10.6506 12.3 11.1506 9.55 13.4506 9.55C14.5506 9.55 15.2006 10.1 15.3006 10.2L15.0006 13.6C15.0006 13.75 14.9006 14.4 15.5506 14.4C16.6006 14.4 16.7506 12.45 16.7506 12.1C16.8006 11.5 16.9006 8 13.2506 8C9.80064 8 9.30064 11.7 9.25064 12.6C9.00064 16.85 12.2506 16.85 12.8506 16.85C13.7006 16.85 14.7006 16.5 14.8006 16.45L15.0006 17.45C14.8506 17.55 14.0006 18 12.8006 18C11.7006 18 7.75064 17.8 7.90064 12.6C8.05064 11.55 8.70064 7 13.3006 7C17.9006 7 18.0006 11.05 18.0006 12.1ZM12.0506 12.75C12.0006 13.25 12.0506 13.65 12.1506 13.9C12.2506 14.15 12.4506 14.3 12.7506 14.3C12.8006 14.3 12.9006 14.3 12.9506 14.25C13.0506 14.2 13.1006 14.2 13.2006 14.1C13.3006 14.05 13.3506 13.95 13.4506 13.8C13.5506 13.7 13.6006 13.5 13.6506 13.3L13.9006 10.6C13.8006 10.55 13.6506 10.55 13.5506 10.55C13.3006 10.55 13.1006 10.6 12.9506 10.7C12.8006 10.8 12.6506 10.95 12.5006 11.1C12.4006 11.3 12.3006 11.5 12.2006 11.75C12.1006 12 12.1006 12.4 12.0506 12.75Z" fill="white"/>
</svg>
