<svg width="24" height="24" viewBox="0 0 24 24" fill="none" xmlns="http://www.w3.org/2000/svg">
<path d="M20.5 20V17.5H21.5V20.5C21.5 20.7034 21.4106 20.8823 21.1464 21.1464C20.9009 21.3919 20.6206 21.5 20.5 21.5H17.5V20.5H20H20.5V20ZM4 20.5H6.5V21.5H3.5C3.29662 21.5 3.11766 21.4106 2.85355 21.1464C2.60805 20.9009 2.5 20.6206 2.5 20.5V17.5H3.5V20V20.5H4ZM20 3.5H17.5V2.5H20.5C20.7034 2.5 20.8823 2.58944 21.1464 2.85355C21.4106 3.11766 21.5 3.29662 21.5 3.5V6.5H20.5V4V3.5H20ZM3.5 4V6.5H2.5V3.5C2.5 3.29662 2.58944 3.11766 2.85355 2.85355C3.11766 2.58944 3.29662 2.5 3.5 2.5H6.5V3.5H4H3.5V4ZM5.5 12.5V11.5H18.5V12.5H5.5Z" fill="#1B1B1B" fill-opacity="0.8" stroke="#191D23"/>
</svg>
