<svg width="12" height="12" viewBox="0 0 12 12" fill="none" xmlns="http://www.w3.org/2000/svg">
<path id="Vector" d="M5.06247 0H6.93746C7.24917 0 7.49995 0.250743 7.49995 0.562414V4.49931H9.55541C9.9726 4.49931 10.1812 5.00314 9.88588 5.29841L6.32106 8.86505C6.14528 9.04081 5.857 9.04081 5.68122 8.86505L2.11171 5.29841C1.8164 5.00314 2.02499 4.49931 2.44217 4.49931H4.49997V0.562414C4.49997 0.250743 4.75075 0 5.06247 0ZM11.9999 8.81116V11.4358C11.9999 11.7474 11.7491 11.9982 11.4374 11.9982H0.562497C0.25078 11.9982 0 11.7474 0 11.4358V8.81116C0 8.49948 0.25078 8.24874 0.562497 8.24874H4.00076L5.14919 9.397C5.62028 9.86802 6.37965 9.86802 6.85074 9.397L7.99917 8.24874H11.4374C11.7491 8.24874 11.9999 8.49948 11.9999 8.81116ZM9.09369 10.8733C9.09369 10.6156 8.88276 10.4047 8.62495 10.4047C8.36714 10.4047 8.1562 10.6156 8.1562 10.8733C8.1562 11.1311 8.36714 11.342 8.62495 11.342C8.88276 11.342 9.09369 11.1311 9.09369 10.8733ZM10.5937 10.8733C10.5937 10.6156 10.3827 10.4047 10.1249 10.4047C9.86713 10.4047 9.65619 10.6156 9.65619 10.8733C9.65619 11.1311 9.86713 11.342 10.1249 11.342C10.3827 11.342 10.5937 11.1311 10.5937 10.8733Z" fill="#2A72A8"/>
</svg>
