<svg width="403" height="427" viewBox="0 0 403 427" fill="none" xmlns="http://www.w3.org/2000/svg">
<path d="M39.7639 258.847C44.7968 261.876 50.6594 263.234 56.5115 262.726C62.3636 262.218 67.9047 259.87 72.3404 256.019C76.7761 252.168 79.8787 247.012 81.2035 241.289C82.5282 235.566 82.0071 229.571 79.7148 224.163C77.4226 218.754 73.4768 214.211 68.4433 211.183C63.4097 208.155 57.5467 206.799 51.6947 207.308C45.8427 207.817 40.3023 210.166 35.8675 214.018C31.4328 217.87 28.3315 223.028 27.0081 228.751C25.6762 234.472 26.1936 240.467 28.4858 245.876C30.7779 251.284 34.7268 255.825 39.7639 258.847Z" fill="#EBEBEB"/>
<path d="M45.6042 231.944C45.6233 233.619 46.1388 235.251 47.0856 236.633C48.0323 238.016 49.3677 239.086 50.9229 239.709C52.478 240.332 54.183 240.48 55.8222 240.134C57.4613 239.787 58.961 238.963 60.1314 237.764C61.3019 236.566 62.0905 235.047 62.3976 233.4C62.7046 231.753 62.5163 230.052 61.8565 228.512C61.1966 226.972 60.0948 225.663 58.6906 224.749C57.2863 223.835 55.6426 223.359 53.9674 223.38C52.8557 223.392 51.7574 223.624 50.7352 224.061C49.7131 224.498 48.7871 225.133 48.0104 225.928C47.2337 226.724 46.6213 227.664 46.2085 228.697C45.7956 229.729 45.5902 230.833 45.6042 231.944Z" fill="white"/>
<path d="M39.7256 255.356V258.847C44.1529 261.508 49.2337 262.883 54.3986 262.818C59.5635 262.754 64.6084 261.253 68.9681 258.483V255.001C68.9884 253.053 68.6191 251.12 67.8821 249.316C67.1451 247.512 66.0551 245.874 64.6761 244.498C63.2971 243.121 61.657 242.034 59.8521 241.3C58.0471 240.566 56.1137 240.2 54.1653 240.224C52.217 240.247 50.2931 240.66 48.5064 241.438C46.7198 242.215 45.1066 243.342 43.7614 244.751C42.4163 246.161 41.3663 247.825 40.6733 249.646C39.9802 251.467 39.658 253.409 39.7256 255.356Z" fill="white"/>
<path d="M348.982 146.125C352.279 148.111 356.12 149.002 359.955 148.67C363.789 148.338 367.421 146.801 370.328 144.278C373.234 141.755 375.268 138.376 376.136 134.627C377.005 130.877 376.663 126.948 375.161 123.404C373.659 119.861 371.074 116.883 367.775 114.9C364.477 112.916 360.635 112.027 356.8 112.362C352.966 112.696 349.335 114.236 346.43 116.761C343.525 119.286 341.494 122.666 340.628 126.416C339.732 130.163 340.06 134.098 341.563 137.645C343.067 141.191 345.666 144.164 348.982 146.125Z" fill="#EBEBEB"/>
<path d="M352.809 128.508C352.822 129.604 353.161 130.672 353.781 131.576C354.401 132.48 355.275 133.18 356.293 133.587C357.311 133.994 358.427 134.09 359.499 133.863C360.572 133.637 361.553 133.097 362.319 132.312C363.085 131.528 363.601 130.533 363.802 129.456C364.003 128.378 363.879 127.265 363.448 126.257C363.016 125.249 362.295 124.392 361.376 123.794C360.457 123.196 359.382 122.884 358.285 122.897C357.557 122.906 356.838 123.058 356.169 123.344C355.5 123.631 354.894 124.047 354.385 124.568C353.877 125.089 353.476 125.705 353.205 126.381C352.935 127.057 352.8 127.78 352.809 128.508Z" fill="white"/>
<path d="M348.953 143.843V146.126C351.856 147.873 355.189 148.777 358.578 148.734C361.966 148.692 365.276 147.706 368.135 145.886V143.613C368.104 141.07 367.064 138.642 365.244 136.865C363.424 135.088 360.972 134.107 358.429 134.137C355.885 134.168 353.458 135.208 351.681 137.028C349.904 138.848 348.922 141.3 348.953 143.843Z" fill="white"/>
<path d="M167.783 100.079H46.3242V16.9844H167.783V100.079ZM47.2833 99.1203H166.824V17.9435H47.2833V99.1203Z" fill="#EBEBEB"/>
<path d="M55.8191 22.3464C55.8172 22.824 55.6739 23.2903 55.4071 23.6865C55.1404 24.0827 54.7623 24.391 54.3205 24.5725C53.8787 24.7539 53.3931 24.8004 52.9249 24.7061C52.4567 24.6118 52.0269 24.3808 51.6899 24.0424C51.3528 23.704 51.1236 23.2734 51.0311 22.8048C50.9386 22.3362 50.987 21.8508 51.1702 21.4097C51.3534 20.9686 51.6632 20.5917 52.0605 20.3266C52.4577 20.0614 52.9246 19.9199 53.4022 19.9199C53.7204 19.9199 54.0355 19.9828 54.3294 20.1048C54.6232 20.2269 54.8901 20.4058 55.1146 20.6312C55.3392 20.8566 55.517 21.1242 55.6379 21.4186C55.7588 21.7129 55.8204 22.0282 55.8191 22.3464Z" fill="#A6A6A6"/>
<path d="M65.6873 22.3464C65.6854 22.824 65.542 23.2903 65.2753 23.6865C65.0086 24.0827 64.6305 24.391 64.1887 24.5725C63.7469 24.7539 63.2612 24.8004 62.793 24.7061C62.3248 24.6118 61.8951 24.3808 61.558 24.0424C61.221 23.704 60.9917 23.2734 60.8993 22.8048C60.8068 22.3362 60.8552 21.8508 61.0384 21.4097C61.2216 20.9686 61.5314 20.5917 61.9286 20.3266C62.3259 20.0614 62.7928 19.9199 63.2704 19.9199C63.5886 19.9199 63.9037 19.9828 64.1975 20.1048C64.4914 20.2269 64.7582 20.4058 64.9828 20.6312C65.2073 20.8566 65.3852 21.1242 65.5061 21.4186C65.627 21.7129 65.6885 22.0282 65.6873 22.3464Z" fill="#EBEBEB"/>
<path d="M75.5564 22.3464C75.5545 22.824 75.4112 23.2903 75.1444 23.6865C74.8777 24.0827 74.4996 24.391 74.0578 24.5725C73.616 24.7539 73.1304 24.8004 72.6622 24.7061C72.194 24.6118 71.7642 24.3808 71.4272 24.0424C71.0901 23.704 70.8609 23.2734 70.7684 22.8048C70.6759 22.3362 70.7243 21.8508 70.9075 21.4097C71.0908 20.9686 71.4005 20.5917 71.7978 20.3266C72.195 20.0614 72.6619 19.9199 73.1395 19.9199C73.4577 19.9199 73.7728 19.9828 74.0667 20.1048C74.3605 20.2269 74.6274 20.4058 74.8519 20.6312C75.0765 20.8566 75.2543 21.1242 75.3752 21.4186C75.4961 21.7129 75.5577 22.0282 75.5564 22.3464Z" fill="#2A72A8"/>
<path d="M167.303 26.5957H46.8037V27.5548H167.303V26.5957Z" fill="#EBEBEB"/>
<path d="M83.4392 116.414L20.1602 125.049L25.6359 165.179L88.9149 156.545L83.4392 116.414Z" fill="#EBEBEB"/>
<path d="M83.4691 116.434C81.244 119.225 78.9614 121.92 76.7555 124.682C74.5496 127.444 72.1999 130.091 69.8981 132.776C67.5963 135.462 65.1027 138.358 62.6858 141.13L62.4652 141.389C60.336 143.838 58.1941 146.277 56.0393 148.707L55.7228 149.062L55.3296 148.812L47.187 143.461C47.0868 143.407 46.9907 143.346 46.8992 143.278C43.7854 141.239 40.694 139.199 37.6249 137.159C34.7093 135.19 31.7905 133.202 28.8685 131.194C25.9912 129.141 23.0372 127.156 20.1504 125.065C23.1523 126.782 26.1255 128.624 29.1082 130.398C32.091 132.172 35.0641 134.042 38.0277 135.903C41.327 137.955 44.6262 140.043 47.9255 142.166L55.3392 146.961C57.2573 144.775 59.2331 142.569 61.1992 140.401C63.8175 137.524 66.4358 134.589 69.0733 131.721C71.4326 129.164 73.8015 126.606 76.1801 124.049C78.6737 121.459 80.9947 118.898 83.4691 116.434Z" fill="white"/>
<path d="M48.1463 143.096C48.1268 143.124 48.1042 143.149 48.0792 143.172C47.7915 143.499 47.4942 143.834 47.1969 144.132C45.7966 145.695 44.3196 147.201 42.8618 148.668C41.0587 150.481 39.1981 152.236 37.3279 153.981C35.4577 155.727 33.4915 157.415 31.5734 159.074C29.6552 160.733 27.6411 162.364 25.5791 163.869C27.2671 161.951 29.051 160.033 30.8541 158.278C32.6571 156.523 34.5369 154.71 36.3976 152.965C38.2582 151.219 40.2339 149.522 42.1521 147.862C43.7058 146.539 45.2883 145.225 46.9475 143.978L48.0888 143.115L48.1463 143.096Z" fill="white"/>
<path d="M88.5718 155.295C86.1741 154.336 83.8243 153.329 81.5129 152.255C79.2015 151.181 76.8997 150.039 74.6171 148.889C72.3345 147.738 70.0806 146.51 67.9035 145.244C66.0909 144.227 64.2878 143.172 62.5327 142.05L61.4105 141.331C61.4105 141.331 61.353 141.331 61.3242 141.273H61.4201L62.7533 141.811C64.6714 142.578 66.5224 143.412 68.3831 144.275C70.7136 145.35 72.9963 146.491 75.2693 147.651C77.5423 148.812 79.8058 150.02 81.9829 151.286C84.16 152.552 86.4234 153.876 88.5718 155.295Z" fill="white"/>
<path d="M284.285 210.12L269.503 272.557L367.955 295.866L382.737 233.429L284.285 210.12Z" fill="#EBEBEB"/>
<path d="M382.703 233.413C377.831 236.29 372.911 238.957 368.02 241.748C363.128 244.539 358.199 247.157 353.278 249.813C348.163 252.595 343.023 255.338 337.856 258.042L337.386 258.321L323.72 265.475L323.048 265.801L322.607 265.207C319.595 261.038 316.6 256.86 313.62 252.672C313.504 252.53 313.395 252.383 313.294 252.23C309.912 247.499 306.542 242.735 303.186 237.94C299.992 233.384 296.808 228.762 293.595 224.139C290.382 219.516 287.294 214.855 284.215 210.107C287.668 214.366 291.015 218.739 294.41 223.103C297.805 227.467 301.124 231.879 304.461 236.319C308.163 241.23 311.852 246.198 315.529 251.223C318.285 254.964 321.034 258.711 323.777 262.464C327.901 260.344 332.044 258.196 336.178 256.115C341.702 253.295 347.23 250.507 352.761 247.751C357.709 245.296 362.671 242.867 367.646 240.462C372.757 238.103 377.726 235.667 382.703 233.413Z" fill="white"/>
<path d="M315.395 252.67C315.347 252.67 315.309 252.727 315.251 252.747C314.637 253.073 314.014 253.389 313.391 253.706C310.427 255.211 307.425 256.583 304.394 257.935C300.692 259.585 296.942 261.119 293.183 262.635C289.423 264.15 285.635 265.512 281.808 266.893C277.981 268.274 274.135 269.521 270.203 270.605C273.809 268.687 277.492 266.989 281.185 265.349C284.877 263.709 288.656 262.174 292.406 260.65C296.156 259.125 299.963 257.724 303.8 256.382C306.84 255.317 309.928 254.281 313.055 253.36C313.774 253.14 314.494 252.938 315.232 252.737L315.395 252.67Z" fill="white"/>
<path d="M368.183 293.786C365.161 291.062 362.284 288.175 359.474 285.26C356.664 282.344 353.921 279.361 351.197 276.359C348.473 273.358 345.846 270.269 343.285 267.133C341.184 264.582 339.122 262.002 337.166 259.345C336.734 258.77 336.322 258.204 335.909 257.638C335.875 257.595 335.843 257.55 335.813 257.504C335.853 257.548 335.898 257.586 335.948 257.619L337.626 259.144C340.005 261.369 342.287 263.671 344.551 266.001C347.37 268.879 350.094 271.9 352.799 274.921C355.503 277.942 358.151 281.011 360.721 284.147C363.291 287.283 365.814 290.468 368.183 293.786Z" fill="white"/>
<path d="M361.2 8.78516H303.07V45.6523H361.2V8.78516Z" fill="#EBEBEB"/>
<path d="M361.2 8.82422C358.851 11.0685 356.463 13.2168 354.094 15.4323C351.725 17.6478 349.298 19.7578 346.92 21.8869C344.541 24.0161 341.894 26.3371 339.381 28.5334L339.161 28.7444L332.447 34.5564L332.111 34.825L331.785 34.5564L325.072 28.7348L324.842 28.5334C322.316 26.3403 319.8 24.1216 317.294 21.8774C314.905 19.7578 312.498 17.5902 310.129 15.4323C307.76 13.2744 305.334 11.0685 303.022 8.82422C305.516 10.7424 307.971 12.7661 310.446 14.7418C312.92 16.7175 315.366 18.7507 317.812 20.8032C320.535 23.0538 323.256 25.3396 325.973 27.6606C328.007 29.3774 330.04 31.1133 332.073 32.8493C334.097 31.1133 336.13 29.3678 338.163 27.6606C340.881 25.3588 343.601 23.0698 346.325 20.7936C348.768 18.7603 351.22 16.7463 353.681 14.7514C356.252 12.7277 358.726 10.7424 361.2 8.82422Z" fill="white"/>
<path d="M326.117 28.4648L326.05 28.5224C325.743 28.7909 325.423 29.0499 325.091 29.2992C323.633 30.5365 322.146 31.7161 320.621 32.8574C318.77 34.2673 316.881 35.6196 314.972 36.9719C313.064 38.3242 311.136 39.5902 309.218 40.8562C307.3 42.1222 305.276 43.3402 303.224 44.4624C304.988 42.9182 306.82 41.4796 308.671 40.0793C310.522 38.6791 312.421 37.3076 314.311 35.9649C316.2 34.6222 318.147 33.3274 320.123 32.071C321.686 31.064 323.268 30.0761 324.918 29.1937L326.05 28.5512L326.117 28.4648Z" fill="white"/>
<path d="M361.057 44.4624C359.004 43.3402 357.019 42.1126 355.063 40.8562C353.106 39.5998 351.178 38.2859 349.26 36.9719C347.342 35.658 345.424 34.2673 343.611 32.8574C342.096 31.7161 340.609 30.5461 339.161 29.3088L338.202 28.5224C338.202 28.5224 338.202 28.5224 338.135 28.4648L338.221 28.5128L339.353 29.1554C340.983 30.1145 342.556 31.0736 344.148 32.0326C346.114 33.289 348.033 34.603 349.951 35.9265C351.869 37.2501 353.739 38.6215 355.59 40.041C357.441 41.4604 359.292 42.9182 361.057 44.4624Z" fill="white"/>
<path d="M201.235 426.15C306.288 426.15 391.45 408.175 391.45 386.003C391.45 363.83 306.288 345.855 201.235 345.855C96.1817 345.855 11.0195 363.83 11.0195 386.003C11.0195 408.175 96.1817 426.15 201.235 426.15Z" fill="#EBEBEB"/>
<path d="M0 327.144L50.3615 326.904L100.723 326.827L201.436 326.664L302.15 326.818L352.511 326.904L402.873 327.144L352.511 327.374L302.15 327.46L201.436 327.623L100.723 327.46L50.3615 327.374L0 327.144Z" fill="#263238"/>
<path d="M334.471 268.678C334.471 268.678 318.56 265.072 309.813 257.035C301.066 248.997 296.223 234.602 296.223 234.602C302.268 235.762 308.228 237.329 314.062 239.291C316.255 241.548 318.078 244.137 319.461 246.964C319.611 245.149 319.627 243.325 319.509 241.507C321.548 242.389 323.455 243.548 325.177 244.95C332.428 251.232 334.471 268.678 334.471 268.678Z" fill="#2A72A8"/>
<path d="M306.178 241.602C304.001 240.096 301.795 238.648 299.637 237.133C299.609 237.115 299.589 237.087 299.582 237.055C299.575 237.022 299.581 236.988 299.599 236.96C299.616 236.932 299.645 236.913 299.677 236.905C299.709 236.898 299.743 236.904 299.771 236.922C303.867 239.377 307.914 241.995 311.827 244.729C313.189 245.688 314.522 246.647 315.846 247.702C315.759 247.539 315.663 247.386 315.567 247.222C315.097 246.426 314.608 245.64 314.09 244.863C313.09 243.269 311.957 241.761 310.705 240.355C310.705 240.298 310.705 240.221 310.791 240.279C312.028 241.708 313.266 243.156 314.397 244.633C314.934 245.352 315.433 246.1 315.903 246.868C316.152 247.261 316.392 247.664 316.622 248.066C316.699 248.201 316.785 248.335 316.862 248.479C318.915 250.09 320.919 251.778 322.837 253.562C324.017 254.655 325.149 255.797 326.252 256.976C325.638 255.058 325.101 253.14 324.381 251.222C324.381 251.164 324.468 251.136 324.487 251.222C325.187 253.217 325.945 255.212 326.482 257.254C327.7 258.578 328.86 259.94 329.963 261.359L329.954 261.062C329.768 260.314 329.576 259.566 329.378 258.818C328.995 257.379 328.573 255.941 328.083 254.54C327.172 251.608 325.725 248.87 323.816 246.465C323.81 246.454 323.809 246.442 323.811 246.43C323.813 246.419 323.818 246.408 323.827 246.399C323.835 246.391 323.846 246.385 323.858 246.383C323.869 246.381 323.881 246.383 323.892 246.388C326.866 250.118 328.94 254.483 329.954 259.144C330.126 259.828 330.289 260.509 330.443 261.187C330.52 261.542 330.615 261.916 330.683 262.28C331.162 262.932 331.642 263.594 332.083 264.265C334.792 268.412 337.043 272.84 338.796 277.472C340.785 282.673 342.488 287.978 343.899 293.364C343.899 293.469 343.764 293.508 343.736 293.364C340.619 284.061 337.444 274.614 332.121 266.289C330.989 264.534 329.771 262.836 328.486 261.206C325.85 261.035 323.247 260.516 320.746 259.662C318.013 258.746 315.406 257.49 312.987 255.921C311.587 255.01 310.312 253.955 309.017 252.919C309.008 252.916 309.001 252.911 308.994 252.905C308.988 252.898 308.984 252.89 308.981 252.881C308.978 252.873 308.978 252.863 308.98 252.854C308.981 252.845 308.985 252.837 308.991 252.83C308.996 252.823 309.004 252.817 309.012 252.813C309.02 252.809 309.029 252.807 309.038 252.808C309.047 252.808 309.056 252.811 309.064 252.815C309.072 252.819 309.079 252.826 309.084 252.833C311.304 254.625 313.756 256.109 316.373 257.245C318.947 258.423 321.637 259.326 324.401 259.94C325.58 260.199 326.77 260.381 327.959 260.544C326.479 258.717 324.904 256.969 323.24 255.308C322.703 254.77 322.147 254.262 321.6 253.744C319.743 252.444 317.772 251.314 315.711 250.368C313.103 249.112 310.542 247.779 307.962 246.465C306.504 245.726 305.085 244.969 303.588 244.249C303.521 244.249 303.588 244.125 303.646 244.153C306.264 245.419 308.921 246.599 311.558 247.807C314.042 248.949 316.555 250.09 318.943 251.433L319.241 251.605C317.086 249.732 314.864 247.935 312.575 246.215C310.494 244.662 308.345 243.108 306.178 241.602Z" fill="#263238"/>
<path d="M307.079 249.802C308.374 250.368 309.688 250.876 310.973 251.471C312.258 252.065 313.534 252.813 314.809 253.552C314.867 253.552 314.809 253.657 314.752 253.629C313.486 253.024 312.201 252.458 310.916 251.825C309.63 251.192 308.355 250.483 307.079 249.907C306.983 249.879 307.012 249.773 307.079 249.802Z" fill="#263238"/>
<path d="M386.166 188.488C383.21 192.276 381.531 196.903 381.37 201.704C381.313 203.133 381.543 205.119 381.706 207.459C377.732 209.759 374.212 212.765 371.319 216.33C374.498 214.49 378.144 213.617 381.812 213.818C381.74 215.43 381.538 217.034 381.207 218.613C378.905 218.625 376.626 219.078 374.494 219.946C376.585 219.925 378.659 220.336 380.584 221.155C377.707 230.18 369.315 239.454 346.057 243.386C343.592 232.318 345.05 220.736 350.181 210.624C357.134 196.861 386.166 188.488 386.166 188.488Z" fill="#2A72A8"/>
<path d="M337.972 281.969C338.375 278.133 338.876 274.297 339.478 270.46C340.66 262.79 342.228 255.185 344.177 247.673C345.09 244.147 346.211 240.679 347.534 237.286C347.472 236.668 347.443 236.046 347.447 235.425C347.447 234.677 347.447 233.929 347.447 233.19C347.447 231.694 347.534 230.208 347.658 228.721C347.897 225.777 348.378 222.858 349.097 219.993C349.519 218.334 350.056 216.704 350.497 215.054C350.497 214.987 350.622 215.054 350.603 215.054C349.83 217.914 349.257 220.824 348.886 223.763C348.466 226.659 348.204 229.575 348.1 232.5C348.1 233.306 348.1 234.102 348.1 234.907C348.1 235.243 348.1 235.588 348.1 235.933C349.248 233.151 350.557 230.439 352.022 227.81C354.388 223.649 357.052 219.665 359.992 215.889C360.004 215.448 360.068 215.01 360.184 214.584L360.529 213.031C360.769 211.966 361.028 210.911 361.316 209.856C361.901 207.746 362.659 205.703 363.32 203.622C363.32 203.555 363.445 203.622 363.426 203.622C362.812 205.684 362.4 207.813 361.93 209.913L361.239 213.031C361.124 213.548 361.019 214.076 360.913 214.594V214.709C361.872 213.52 362.831 212.35 363.79 211.199C368.24 205.981 373.113 201.176 378.013 196.4C378.618 195.815 379.241 195.24 379.855 194.664C379.855 194.664 379.97 194.664 379.922 194.741C375.232 199.632 370.619 204.581 366.246 209.76C365.21 210.988 364.187 212.234 363.176 213.5L364.769 212.445C366.121 211.554 367.492 210.69 368.912 209.904C370.331 209.117 371.741 208.341 373.199 207.621C374.657 206.902 376.287 206.279 377.726 205.435C377.783 205.435 377.841 205.511 377.774 205.53C376.305 206.219 374.886 207.007 373.525 207.89C372.115 208.724 370.696 209.578 369.305 210.46C367.914 211.343 366.562 212.177 365.2 213.059C364.068 213.798 362.956 214.603 361.776 215.284C359.073 218.748 356.584 222.374 354.324 226.141C352.918 228.508 351.637 230.947 350.488 233.449L351.322 233.085L353.451 232.126C354.823 231.512 356.194 230.927 357.575 230.323C360.184 229.191 362.831 228.146 365.392 226.899C366.835 226.218 368.232 225.443 369.574 224.578C369.631 224.578 369.689 224.635 369.631 224.674C364.836 227.963 359.503 230.284 354.219 232.625L351.926 233.632C351.293 233.91 350.67 234.226 350.008 234.466C348.445 237.966 347.131 241.571 346.076 245.256C343.988 252.67 342.294 260.191 341.002 267.785C339.612 275.448 338.71 283.12 338.01 290.793C337.924 291.752 337.837 292.711 337.732 293.67C337.732 293.752 337.7 293.83 337.642 293.887C337.585 293.945 337.506 293.977 337.425 293.977C337.344 293.977 337.266 293.945 337.208 293.887C337.15 293.83 337.118 293.752 337.118 293.67C337.166 289.757 337.569 285.844 337.972 281.969Z" fill="#263238"/>
<path d="M352.138 217.674C352.56 215.305 353.193 212.984 353.835 210.672C353.835 210.605 353.95 210.672 353.941 210.672C353.346 212.945 352.924 215.266 352.502 217.578C352.08 219.889 351.677 222.296 351.342 224.665C351.342 224.665 351.275 224.665 351.284 224.665C351.435 222.32 351.72 219.986 352.138 217.674Z" fill="#263238"/>
<path d="M362.17 224.089C363.787 223.012 365.479 222.05 367.233 221.212C368.087 220.771 368.941 220.359 369.804 219.937C370.667 219.515 371.607 219.15 372.489 218.709C372.547 218.709 372.604 218.776 372.489 218.805C371.645 219.227 370.83 219.764 369.996 220.205C369.161 220.646 368.279 221.164 367.416 221.615C365.709 222.574 364.04 223.533 362.246 224.291C362.226 224.285 362.208 224.275 362.192 224.261C362.177 224.247 362.165 224.229 362.157 224.209C362.15 224.19 362.147 224.169 362.149 224.148C362.151 224.127 362.158 224.107 362.17 224.089Z" fill="#263238"/>
<path opacity="0.1" d="M334.183 241.114C334.183 241.114 319.451 237.604 312.69 227.687C306.235 218.25 304.144 202.166 303.981 200.756C304.25 202.051 307.29 216.101 317.313 222.652C324.985 227.706 332.399 231.83 334.183 241.114Z" fill="#263238"/>
<path d="M320.593 215.678C323.208 218.087 325.09 221.185 326.021 224.616C326.021 224.616 326.021 224.664 326.021 224.616C324.938 221.263 323.066 218.217 320.564 215.735C320.562 215.724 320.564 215.712 320.57 215.702C320.575 215.692 320.583 215.683 320.593 215.678Z" fill="#263238"/>
<path d="M334.183 241.112C334.183 241.112 319.451 237.602 312.69 227.685C306.235 218.248 304.144 202.164 303.981 200.754C303.984 200.722 303.984 200.69 303.981 200.658C303.981 200.658 311.05 210.69 318.473 213.251C325.896 215.812 336.303 224.702 334.183 241.112Z" fill="#2A72A8"/>
<path d="M306.581 206.232C307.898 208.936 309.417 211.536 311.127 214.01C312.843 216.364 314.884 218.463 317.189 220.244C319.184 221.837 321.303 223.275 323.327 224.829V224.762C322.943 224.196 322.54 223.649 322.118 223.112C321.274 222.038 320.354 221.021 319.433 220.014C317.601 218.029 315.731 216.082 314.091 213.934C313.178 212.737 312.388 211.452 311.732 210.097C311.732 210.04 311.808 210.001 311.837 210.097C314.225 215.075 318.992 218.259 322.387 222.47C322.873 223.066 323.328 223.687 323.749 224.33C324.088 224.794 324.371 225.296 324.593 225.826C326.46 227.316 328.146 229.019 329.618 230.9C329.49 229.928 329.291 228.966 329.024 228.023C328.681 226.713 328.158 225.457 327.47 224.292C327.462 224.28 327.46 224.266 327.462 224.253C327.465 224.239 327.473 224.227 327.484 224.22C327.496 224.212 327.51 224.209 327.523 224.212C327.537 224.215 327.549 224.223 327.556 224.234C328.269 225.398 328.845 226.64 329.273 227.936C329.584 228.971 329.765 230.041 329.81 231.12C330.533 232.109 331.196 233.141 331.796 234.209C331.738 233.902 331.68 233.585 331.613 233.25C331.326 231.782 331 230.324 330.654 228.876C329.965 225.926 328.768 223.119 327.115 220.58C327.115 220.523 327.115 220.455 327.202 220.513C328.895 223.018 330.22 225.754 331.134 228.636C331.594 230.075 331.978 231.514 332.304 233.029C332.467 233.758 332.611 234.477 332.755 235.206C332.822 235.59 332.908 235.973 332.966 236.357C334.426 239.564 335.563 242.909 336.361 246.341C337.806 252.473 338.857 258.691 339.507 264.957C340.259 271.521 340.595 278.126 340.514 284.733C340.514 285.558 340.456 286.383 340.408 287.208C340.414 287.233 340.415 287.259 340.409 287.285C340.403 287.311 340.392 287.334 340.376 287.355C340.36 287.375 340.339 287.392 340.316 287.403C340.292 287.415 340.266 287.421 340.24 287.421C340.214 287.421 340.188 287.415 340.165 287.403C340.141 287.392 340.121 287.375 340.105 287.355C340.089 287.334 340.077 287.311 340.072 287.285C340.066 287.259 340.066 287.233 340.072 287.208C339.929 283.947 339.842 280.676 339.641 277.415C339.439 274.155 339.171 270.884 338.816 267.633C338.149 261.235 337.124 254.879 335.747 248.595C334.558 243.205 333.004 237.786 330.069 233.077C328.606 230.729 326.817 228.601 324.756 226.757C322.684 224.906 320.43 223.275 318.253 221.558C316.049 219.877 314.047 217.946 312.288 215.804C310.491 213.422 308.924 210.876 307.607 208.198L306.552 206.203C306.457 206.232 306.543 206.165 306.581 206.232Z" fill="#263238"/>
<path d="M388.218 234.602C388.218 234.602 388.448 255.529 375.932 261.571C363.416 267.613 356.751 262.578 348.215 264.602C348.551 264.103 354.622 255.385 364.27 252.978C374.206 250.513 385.207 243.32 388.218 234.602Z" fill="#2A72A8"/>
<path opacity="0.1" d="M388.218 234.602C388.218 234.602 388.448 255.529 375.932 261.571C363.416 267.613 356.751 262.578 348.215 264.602C352.709 262.461 357.512 261.044 362.448 260.401C370.341 259.442 385.418 254.349 388.218 234.602Z" fill="black"/>
<path d="M347.39 264.975C348.88 263.621 350.556 262.487 352.368 261.608C352.636 261.474 352.914 261.369 353.183 261.254C353.451 261.138 353.451 260.927 353.605 260.774C353.977 260.381 354.371 260.01 354.784 259.661C355.566 258.98 356.407 258.37 357.297 257.839C359.369 256.621 361.642 255.768 363.761 254.636C363.819 254.636 363.877 254.703 363.819 254.732C362.764 255.278 361.757 255.873 360.731 256.468C359.705 257.062 358.726 257.599 357.767 258.184C356.895 258.744 356.065 259.366 355.283 260.045C355.063 260.237 354.852 260.448 354.641 260.659C356.025 260.194 357.438 259.819 358.87 259.537C361.162 259.067 363.483 258.741 365.766 258.252C366.887 258.013 367.995 257.715 369.084 257.36C370.12 256.525 371.156 255.691 372.144 254.789C373.335 253.701 374.417 252.5 375.376 251.202C375.376 251.145 375.51 251.202 375.472 251.26C373.955 253.313 372.236 255.208 370.341 256.918C370.878 256.717 371.415 256.496 371.942 256.257C376.236 254.326 379.921 251.258 382.598 247.385C382.598 247.328 382.732 247.385 382.694 247.443C380.418 250.768 377.48 253.586 374.062 255.72C372.348 256.786 370.517 257.652 368.605 258.3C366.387 258.987 364.125 259.522 361.834 259.901C359.59 260.27 357.375 260.799 355.206 261.484C353.211 262.142 351.334 263.113 349.644 264.361C346.457 266.835 343.889 270.017 342.144 273.654C339.908 278.482 338.514 283.655 338.02 288.952C338.02 289.182 337.646 289.182 337.665 288.952C338.259 280.243 340.609 271.084 347.39 264.975Z" fill="#263238"/>
<path d="M361.911 258.185C362.563 257.206 363.445 256.402 364.481 255.845C365.669 255.228 366.712 254.365 367.54 253.313C367.54 253.265 367.675 253.313 367.636 253.37C366.885 254.332 365.969 255.154 364.932 255.797C363.796 256.381 362.794 257.194 361.987 258.185C361.959 258.252 361.882 258.185 361.911 258.185Z" fill="#263238"/>
<path d="M355.273 280.416L354.698 291.925L352.962 327.085H326.712L324.966 291.925L324.391 280.416H355.273Z" fill="#37474F"/>
<path d="M355.273 280.416L354.698 291.925H324.966L324.391 280.416H355.273Z" fill="#263238"/>
<path d="M357.115 275.611H322.56V286.593H357.115V275.611Z" fill="#37474F"/>
<path d="M279.477 23.7383H122.984C120.885 23.7558 118.81 24.1869 116.878 25.0069C114.946 25.8269 113.195 27.0196 111.724 28.517C110.254 30.0143 109.093 31.7869 108.308 33.7333C107.523 35.6797 107.129 37.7618 107.149 39.8605V362.007C107.113 366.244 108.761 370.322 111.73 373.345C114.699 376.368 118.747 378.089 122.984 378.129H279.477C283.715 378.089 287.764 376.368 290.734 373.346C293.705 370.323 295.355 366.245 295.321 362.007V39.8605C295.357 35.6218 293.708 31.5424 290.737 28.5192C287.766 25.4959 283.716 23.7763 279.477 23.7383ZM285.414 352.042C285.414 360.521 279.065 367.388 271.239 367.388H131.213C123.367 367.388 117.018 360.521 117.018 352.042V52.0696C117.018 34.8061 123.367 33.9525 131.213 33.9525H159.266C160.896 33.9525 162.229 35.8036 162.229 38.0958V39.0548C162.229 44.4353 165.174 44.4449 168.78 44.4449H233.633C237.278 44.4449 240.203 44.4449 240.203 39.0548V38.0958C240.203 35.8036 241.517 33.9525 243.176 33.9525H271.22C279.046 33.9525 285.395 36.2447 285.395 52.0696L285.414 352.042Z" fill="#263238"/>
<path d="M285.423 52.3282V352.31C285.423 360.789 279.074 367.656 271.248 367.656H131.222C123.376 367.656 117.027 360.798 117.027 352.31V52.3282C117.027 35.0647 123.376 34.2207 131.222 34.2207H159.275C160.905 34.2207 162.239 36.0717 162.239 38.3639V39.323C162.239 44.7035 165.183 44.7227 168.789 44.7227H233.662C237.306 44.7227 240.231 44.7227 240.231 39.323V38.3639C240.231 36.0717 241.545 34.2207 243.204 34.2207H271.248C279.122 34.2207 285.423 36.5129 285.423 52.3282Z" fill="white"/>
<path d="M285.423 52.3378V79.547H117.037V52.3378C117.037 35.0743 123.386 34.2207 131.232 34.2207H159.285C160.915 34.2207 162.248 36.0717 162.248 38.3639V39.323C162.248 44.6939 165.193 44.7131 168.799 44.7131H233.662C237.306 44.7131 240.231 44.7131 240.231 39.323V38.3639C240.231 36.0717 241.545 34.2207 243.205 34.2207H271.248C279.122 34.2207 285.423 36.5129 285.423 52.3378Z" fill="#2A72A8"/>
<path d="M210.069 37.77H192.383C192.237 37.7688 192.093 37.7384 191.959 37.6805C191.825 37.6226 191.704 37.5384 191.603 37.4329C191.502 37.3274 191.423 37.2028 191.371 37.0663C191.319 36.9298 191.294 36.7843 191.3 36.6383C191.299 36.35 191.413 36.0733 191.616 35.8686C191.819 35.6638 192.095 35.5475 192.383 35.545H210.069C210.213 35.5437 210.356 35.571 210.49 35.6254C210.624 35.6798 210.746 35.7601 210.848 35.8618C210.951 35.9634 211.032 36.0844 211.088 36.2177C211.143 36.351 211.172 36.4939 211.172 36.6383C211.177 36.7859 211.152 36.933 211.099 37.0708C211.046 37.2085 210.965 37.3341 210.862 37.4398C210.759 37.5456 210.636 37.6294 210.499 37.6861C210.363 37.7429 210.216 37.7714 210.069 37.77Z" fill="white"/>
<path d="M154.441 40.6941C154.355 40.7804 154.259 40.8667 154.173 40.9626C154.117 41.0089 154.066 41.0602 154.019 41.1161C153.676 40.7724 153.269 40.4998 152.821 40.3138C152.372 40.1278 151.891 40.032 151.406 40.032C150.92 40.032 150.44 40.1278 149.991 40.3138C149.543 40.4998 149.135 40.7724 148.792 41.1161L148.648 40.9626L148.38 40.6941L148.725 40.3968C148.966 40.1958 149.23 40.0251 149.512 39.8884C149.857 39.7133 150.225 39.5874 150.605 39.5144L151.132 39.4473H151.564H151.919C152.247 39.4853 152.569 39.5625 152.878 39.6774C153.106 39.7543 153.325 39.8572 153.53 39.9844C153.751 40.1082 153.96 40.2527 154.154 40.4159L154.441 40.6749V40.6941Z" fill="white"/>
<path d="M149.645 41.9691L149.214 41.5375C149.793 40.9594 150.578 40.6348 151.396 40.6348C152.214 40.6348 152.999 40.9594 153.578 41.5375L153.146 41.9595C152.916 41.7288 152.643 41.5463 152.341 41.4227C152.04 41.2992 151.717 41.2372 151.391 41.2402C151.066 41.2375 150.744 41.3007 150.444 41.426C150.144 41.5513 149.872 41.736 149.645 41.9691Z" fill="white"/>
<path d="M152.724 42.3908L152.302 42.8128C152.184 42.6952 152.043 42.6024 151.888 42.5398C151.733 42.4772 151.568 42.4461 151.401 42.4483C151.234 42.4465 151.069 42.4787 150.916 42.543C150.763 42.6074 150.624 42.7024 150.509 42.8224L150.077 42.3908C150.25 42.2156 150.456 42.0766 150.683 41.9817C150.911 41.8868 151.154 41.8379 151.401 41.8379C151.647 41.8379 151.891 41.8868 152.118 41.9817C152.345 42.0766 152.551 42.2156 152.724 42.3908Z" fill="white"/>
<path d="M151.794 43.206C151.796 43.2842 151.775 43.3611 151.733 43.427C151.691 43.493 151.63 43.5448 151.558 43.5761C151.487 43.6073 151.407 43.6165 151.33 43.6024C151.253 43.5883 151.182 43.5517 151.126 43.4971C151.07 43.4425 151.032 43.3724 151.016 43.2959C151 43.2194 151.007 43.1398 151.037 43.0674C151.066 42.995 151.117 42.933 151.181 42.8894C151.246 42.8457 151.323 42.8224 151.401 42.8224C151.452 42.8211 151.503 42.8301 151.551 42.8488C151.598 42.8675 151.642 42.8956 151.678 42.9313C151.715 42.9671 151.744 43.0098 151.764 43.057C151.784 43.1041 151.794 43.1548 151.794 43.206Z" fill="white"/>
<path d="M128.019 41.5106C128.017 41.2878 128.081 41.0696 128.204 40.8836C128.326 40.6976 128.501 40.5523 128.707 40.4662C128.912 40.38 129.139 40.357 129.357 40.4C129.576 40.443 129.777 40.5501 129.934 40.7076C130.092 40.8651 130.199 41.0659 130.242 41.2845C130.285 41.503 130.262 41.7294 130.176 41.9349C130.089 42.1403 129.944 42.3154 129.758 42.438C129.572 42.5606 129.354 42.625 129.131 42.6231C128.836 42.6231 128.553 42.5059 128.344 42.2973C128.136 42.0886 128.019 41.8056 128.019 41.5106Z" fill="white"/>
<path d="M131.539 41.511C131.539 41.2909 131.604 41.0758 131.727 40.8929C131.849 40.7099 132.023 40.5673 132.226 40.4831C132.429 40.3989 132.653 40.3769 132.869 40.4198C133.084 40.4627 133.283 40.5687 133.438 40.7243C133.594 40.8799 133.7 41.0781 133.743 41.2939C133.786 41.5097 133.764 41.7334 133.679 41.9367C133.595 42.14 133.453 42.3138 133.27 42.436C133.087 42.5583 132.872 42.6235 132.652 42.6235C132.357 42.6235 132.074 42.5063 131.865 42.2977C131.656 42.089 131.539 41.806 131.539 41.511Z" fill="white"/>
<path d="M135.049 41.5106C135.047 41.2878 135.111 41.0696 135.234 40.8836C135.357 40.6976 135.532 40.5523 135.737 40.4662C135.943 40.38 136.169 40.357 136.388 40.4C136.606 40.443 136.807 40.5501 136.964 40.7076C137.122 40.8651 137.229 41.0659 137.272 41.2845C137.315 41.503 137.292 41.7294 137.206 41.9349C137.12 42.1403 136.974 42.3154 136.788 42.438C136.602 42.5606 136.384 42.625 136.161 42.6231C135.866 42.6231 135.583 42.5059 135.375 42.2973C135.166 42.0886 135.049 41.8056 135.049 41.5106Z" fill="white"/>
<path d="M138.56 41.5106C138.558 41.2883 138.622 41.0704 138.744 40.8846C138.866 40.6988 139.041 40.5535 139.246 40.4671C139.45 40.3807 139.676 40.3571 139.895 40.3993C140.113 40.4415 140.314 40.5476 140.472 40.7042C140.63 40.8607 140.737 41.0606 140.782 41.2786C140.826 41.4965 140.804 41.7226 140.719 41.9282C140.635 42.1338 140.491 42.3096 140.306 42.4334C140.121 42.5571 139.904 42.6232 139.682 42.6232C139.386 42.6232 139.102 42.5063 138.892 42.2979C138.681 42.0895 138.562 41.8066 138.56 41.5106Z" fill="white"/>
<path d="M142.079 41.5106C142.077 41.2878 142.142 41.0696 142.264 40.8836C142.387 40.6976 142.562 40.5523 142.767 40.4662C142.973 40.38 143.199 40.357 143.418 40.4C143.636 40.443 143.837 40.5501 143.995 40.7076C144.152 40.8651 144.259 41.0659 144.302 41.2845C144.345 41.503 144.322 41.7294 144.236 41.9349C144.15 42.1403 144.005 42.3154 143.819 42.438C143.633 42.5606 143.414 42.625 143.192 42.6231C142.897 42.6231 142.614 42.5059 142.405 42.2973C142.196 42.0886 142.079 41.8056 142.079 41.5106Z" fill="white"/>
<path d="M272.792 43.9467H263.71V39.7363H272.792V43.9467ZM264.161 43.4863H272.313V40.1967H264.161V43.4863Z" fill="white"/>
<path d="M270.318 40.4551H264.458V43.2364H270.318V40.4551Z" fill="white"/>
<path d="M273.599 40.7148H272.793V42.9687H273.599V40.7148Z" fill="white"/>
<path d="M132.996 69.1407L128.019 64.4795L132.996 59.8184L133.763 60.6432L129.668 64.4795L133.763 68.3158L132.996 69.1407Z" fill="white"/>
<path d="M270.155 69.4761H266.799V68.2868C266.797 68.2391 266.783 68.1927 266.758 68.1522C266.733 68.1117 266.697 68.0788 266.655 68.0566C266.526 67.9909 266.401 67.9173 266.281 67.836C266.237 67.8098 266.188 67.7959 266.137 67.7959C266.086 67.7959 266.036 67.8098 265.993 67.836L264.986 68.4211L263.308 65.5438L264.324 64.9588C264.364 64.9312 264.397 64.8938 264.419 64.8502C264.441 64.8066 264.451 64.7582 264.449 64.7094C264.449 64.6423 264.449 64.5656 264.449 64.4984C264.449 64.4313 264.449 64.3546 264.449 64.2874C264.451 64.2374 264.44 64.1876 264.419 64.1425C264.397 64.0973 264.365 64.0582 264.324 64.0285L263.308 63.453L264.986 60.5758L265.993 61.1608C266.035 61.1862 266.083 61.1996 266.132 61.1996C266.181 61.1996 266.229 61.1862 266.271 61.1608L266.655 60.9498C266.698 60.9261 266.734 60.8914 266.759 60.8493C266.784 60.8072 266.798 60.7592 266.799 60.71V59.4824H270.155V60.6141C270.155 60.6635 270.168 60.7119 270.194 60.7542C270.219 60.7965 270.256 60.831 270.299 60.8539C270.428 60.9164 270.553 60.9869 270.673 61.0649C270.717 61.0902 270.767 61.1035 270.817 61.1035C270.868 61.1035 270.917 61.0902 270.961 61.0649L271.968 60.4799L273.647 63.3571L272.63 63.9422C272.587 63.9666 272.552 64.0034 272.529 64.0478C272.507 64.0922 272.499 64.1423 272.505 64.1915V64.6135C272.499 64.6628 272.507 64.7128 272.529 64.7573C272.552 64.8017 272.587 64.8385 272.63 64.8629L273.647 65.4479L271.968 68.3252L270.952 67.7401C270.91 67.7147 270.861 67.7013 270.812 67.7013C270.763 67.7013 270.715 67.7147 270.673 67.7401C270.553 67.8214 270.428 67.895 270.299 67.9607C270.257 67.9829 270.221 68.0158 270.196 68.0563C270.171 68.0968 270.157 68.1432 270.155 68.1909V69.4761ZM267.518 68.7568H269.436V68.2868C269.434 68.1054 269.483 67.9272 269.578 67.7727C269.673 67.6182 269.81 67.4938 269.973 67.414L270.28 67.2414C270.435 67.1423 270.614 67.0896 270.798 67.0896C270.982 67.0896 271.161 67.1423 271.316 67.2414L271.7 67.462L272.659 65.8028L272.265 65.5822C272.099 65.4883 271.965 65.3468 271.879 65.1759C271.794 65.0051 271.761 64.8126 271.786 64.6231V64.2682C271.774 64.0871 271.813 63.9062 271.9 63.7466C271.986 63.587 272.117 63.4553 272.275 63.3667L272.659 63.1365L271.7 61.4773L271.316 61.7075C271.161 61.8066 270.982 61.8594 270.798 61.8594C270.614 61.8594 270.435 61.8066 270.28 61.7075C270.185 61.6387 270.082 61.5808 269.973 61.5349C269.809 61.4544 269.671 61.3285 269.576 61.1722C269.481 61.0158 269.432 60.8355 269.436 60.6525V60.2113H267.518V60.6141C267.521 60.7982 267.471 60.9792 267.374 61.1357C267.277 61.2921 267.137 61.4174 266.971 61.4965C266.865 61.5467 266.762 61.6044 266.664 61.6691C266.511 61.7663 266.333 61.8179 266.151 61.8179C265.97 61.8179 265.792 61.7663 265.638 61.6691L265.245 61.439L264.286 63.0982L264.669 63.3284C264.83 63.4176 264.961 63.5509 265.047 63.7123C265.134 63.8738 265.173 64.0567 265.159 64.2395V64.5943C265.171 64.7755 265.131 64.9564 265.045 65.116C264.958 65.2756 264.828 65.4073 264.669 65.4959L264.286 65.7165L265.245 67.3757L265.638 67.1551C265.793 67.0559 265.972 67.0032 266.156 67.0032C266.34 67.0032 266.519 67.0559 266.674 67.1551C266.773 67.2214 266.875 67.2823 266.981 67.3373C267.144 67.4171 267.281 67.5415 267.376 67.696C267.471 67.8504 267.52 68.0287 267.518 68.2101V68.7568ZM268.477 66.9921C267.979 66.9939 267.491 66.8481 267.075 66.5729C266.659 66.2977 266.335 65.9056 266.142 65.446C265.949 64.9864 265.896 64.4799 265.991 63.9905C266.086 63.5011 266.323 63.0507 266.674 62.6963C267.024 62.3418 267.472 62.0991 267.96 61.9988C268.448 61.8986 268.956 61.9452 269.417 62.1329C269.879 62.3206 270.275 62.6409 270.555 63.0534C270.835 63.4659 270.986 63.952 270.99 64.4505C270.994 64.7829 270.932 65.1127 270.807 65.4209C270.682 65.7291 270.498 66.0095 270.264 66.2459C270.03 66.4823 269.752 66.67 269.445 66.7981C269.139 66.9261 268.809 66.9921 268.477 66.9921ZM268.477 62.6762C268.119 62.6743 267.768 62.7792 267.47 62.9775C267.171 63.1757 266.939 63.4584 266.802 63.7894C266.665 64.1204 266.629 64.4847 266.7 64.8358C266.771 65.187 266.945 65.5091 267.2 65.761C267.454 66.013 267.778 66.1834 268.13 66.2504C268.482 66.3175 268.846 66.2782 269.175 66.1376C269.505 65.997 269.785 65.7614 269.98 65.4609C270.175 65.1604 270.276 64.8087 270.271 64.4505C270.263 63.9789 270.071 63.5291 269.736 63.1974C269.401 62.8657 268.949 62.6786 268.477 62.6762Z" fill="white"/>
<path d="M261.312 260.757H141.158V159.113L201.226 120.961L261.312 159.113V260.757Z" fill="#2A72A8"/>
<path opacity="0.2" d="M261.312 260.757H141.158V159.113L201.226 120.961L261.312 159.113V260.757Z" fill="black"/>
<path d="M254.541 252.979H147.93V116.127H227.092L254.541 142.204V252.979Z" fill="#EBEBEB"/>
<path d="M227.092 116.127L254.541 142.204H227.092V116.127Z" fill="#DBDBDB"/>
<path d="M158.335 142.607H217.606V139.097H158.335V142.607Z" fill="#DBDBDB"/>
<path d="M158.335 151.479H217.606V147.968H158.335V151.479Z" fill="#DBDBDB"/>
<path d="M158.335 160.34H217.606V156.83H158.335V160.34Z" fill="#DBDBDB"/>
<path d="M158.326 169.213H245.171V165.703H158.326V169.213Z" fill="#DBDBDB"/>
<path d="M158.326 178.084H245.171V174.574H158.326V178.084Z" fill="#DBDBDB"/>
<path d="M158.326 186.955H245.171V183.445H158.326V186.955Z" fill="#DBDBDB"/>
<path d="M158.326 195.826H245.171V192.316H158.326V195.826Z" fill="#DBDBDB"/>
<path d="M158.326 204.689H245.171V201.179H158.326V204.689Z" fill="#DBDBDB"/>
<path d="M158.326 213.561H245.171V210.05H158.326V213.561Z" fill="#DBDBDB"/>
<path d="M158.326 222.422H245.171V218.912H158.326V222.422Z" fill="#DBDBDB"/>
<path d="M158.326 231.303H245.171V227.792H158.326V231.303Z" fill="#DBDBDB"/>
<path d="M158.326 240.174H245.171V236.664H158.326V240.174Z" fill="#DBDBDB"/>
<path d="M261.312 184.557V260.756H141.158V184.557C146.318 187.434 151.392 190.541 156.504 193.534C161.615 196.526 166.679 199.633 171.734 202.741C177.364 206.165 182.993 209.656 188.604 213.166L188.786 213.061C188.729 213.061 188.7 213.157 188.642 213.185C192.843 215.8 197.047 218.431 201.254 221.079C205.446 218.441 209.646 215.784 213.847 213.185C213.799 213.185 213.761 213.099 213.703 213.061C213.76 213.1 213.821 213.132 213.886 213.157C219.493 209.653 225.116 206.174 230.756 202.722C235.807 199.633 240.877 196.571 245.967 193.534C251.088 190.541 256.152 187.472 261.312 184.557Z" fill="#2A72A8"/>
<g opacity="0.2">
<path d="M261.312 184.557C256.459 187.961 251.52 191.27 246.629 194.589C241.737 197.907 236.76 201.149 231.792 204.4C226.613 207.795 221.424 211.158 216.226 214.49L215.756 214.816L201.916 223.658L201.226 224.071L200.564 223.658C195.941 220.711 191.331 217.763 186.734 214.816L186.254 214.509C181.037 211.171 175.839 207.802 170.66 204.4C165.711 201.168 160.771 197.888 155.842 194.608C150.912 191.328 146.011 187.981 141.158 184.576C146.318 187.453 151.392 190.561 156.504 193.553C161.615 196.545 166.679 199.653 171.734 202.76C177.364 206.184 182.993 209.675 188.604 213.185C192.805 215.8 197.009 218.431 201.216 221.079C205.407 218.441 209.608 215.784 213.809 213.185C219.416 209.681 225.04 206.203 230.679 202.75C235.73 199.662 240.801 196.6 245.89 193.562C251.088 190.541 256.152 187.472 261.312 184.557Z" fill="black"/>
<path d="M188.777 213.109C188.719 213.109 188.69 213.205 188.633 213.234C187.993 213.778 187.354 214.315 186.715 214.845C183.703 217.387 180.615 219.823 177.479 222.192C173.642 225.069 169.739 227.946 165.807 230.689C161.874 233.432 157.885 236.118 153.828 238.717C149.771 241.316 145.666 243.858 141.427 246.188C145.071 242.994 148.86 240.012 152.686 237.115C156.513 234.219 160.445 231.361 164.358 228.608C168.272 225.856 172.3 223.161 176.357 220.561C179.589 218.49 182.878 216.447 186.235 214.538C187.002 214.088 187.779 213.656 188.575 213.215L188.777 213.109Z" fill="black"/>
<path d="M261.024 246.139C256.785 243.809 252.671 241.267 248.633 238.668C244.595 236.069 240.596 233.364 236.635 230.641C232.674 227.917 228.78 225.059 224.953 222.143C221.836 219.774 218.748 217.348 215.755 214.816L213.837 213.185C213.789 213.185 213.751 213.099 213.693 213.061C213.75 213.1 213.811 213.132 213.876 213.156C214.672 213.607 215.448 214.039 216.225 214.49C219.582 216.408 222.843 218.441 226.094 220.513C230.151 223.112 234.122 225.816 238.073 228.559C242.025 231.302 245.919 234.141 249.745 237.066C253.572 239.992 257.38 242.946 261.024 246.139Z" fill="black"/>
</g>
<path d="M158.671 288.531H141.158V306.044H158.671V288.531Z" fill="#EBEBEB"/>
<path d="M184.26 288.531H166.747V306.044H184.26V288.531Z" fill="#EBEBEB"/>
<path d="M209.848 288.531H192.335V306.044H209.848V288.531Z" fill="#EBEBEB"/>
<path d="M235.437 288.531H217.924V306.044H235.437V288.531Z" fill="#EBEBEB"/>
<path d="M261.034 288.531H243.521V306.044H261.034V288.531Z" fill="#EBEBEB"/>
<path d="M260.487 315.271H140.621V317.161H260.487V315.271Z" fill="#EBEBEB"/>
<path d="M260.487 320.258H140.621V322.147H260.487V320.258Z" fill="#EBEBEB"/>
<path d="M260.487 325.256H140.621V327.145H260.487V325.256Z" fill="#EBEBEB"/>
<path d="M196.267 330.242H140.621V332.132H196.267V330.242Z" fill="#EBEBEB"/>
<path d="M141.609 141.178H140.247V140.458H144.084V141.178H141.609ZM135.452 141.11L131.616 141.005V140.286L135.452 140.391V141.11ZM148.879 141.11V140.391C150.145 140.391 151.421 140.334 152.715 140.286V141.005C151.43 141.024 150.155 141.053 148.889 141.082L148.879 141.11ZM157.511 140.813V140.094L161.347 139.902V140.621L157.511 140.813ZM126.82 140.813C125.525 140.736 124.24 140.65 122.984 140.554L123.032 139.835C124.288 139.931 125.554 140.017 126.868 140.094L126.82 140.813ZM166.143 140.343L166.095 139.624L169.931 139.355L169.989 140.075L166.143 140.343ZM118.188 140.132C116.884 139.998 115.618 139.854 114.352 139.691L114.438 138.981C115.676 139.135 116.951 139.279 118.275 139.413L118.188 140.132ZM174.774 139.691L174.707 138.972L178.544 138.636L178.611 139.355L174.774 139.691ZM109.633 139.029C108.339 138.828 107.073 138.607 105.797 138.377L105.931 137.677C107.159 137.897 108.415 138.118 109.7 138.319L109.633 139.029ZM183.368 138.895L183.301 138.176L187.137 137.782L187.214 138.502L183.368 138.895ZM191.999 137.936L191.913 137.217L192.872 137.101C193.831 136.996 194.742 136.881 195.673 136.756L195.769 137.466L192.949 137.821L191.999 137.936ZM101.117 137.341C99.8507 137.053 98.5943 136.747 97.3858 136.382L97.5681 135.682C98.7669 136.008 100.014 136.305 101.28 136.593L101.117 137.341ZM200.478 136.756L200.363 136.046C201.629 135.835 202.885 135.624 204.141 135.385L204.276 136.094C203.023 136.325 201.757 136.545 200.478 136.756ZM208.994 135.164L208.851 134.464C210.097 134.195 211.344 133.927 212.591 133.639L212.744 134.339C211.536 134.627 210.289 134.896 209.033 135.164H208.994ZM92.7247 135.107C91.4875 134.713 90.2599 134.291 89.0802 133.86L89.3295 133.188C90.4996 133.61 91.7177 134.032 92.9453 134.426L92.7247 135.107ZM217.406 133.188L217.223 132.498C218.461 132.181 219.698 131.855 220.925 131.539L221.117 132.229L217.406 133.188ZM84.6109 132.047C83.4216 131.52 82.2515 130.963 81.1294 130.388L81.4555 129.745C82.568 130.321 83.7285 130.867 84.8986 131.385L84.6109 132.047ZM225.73 130.896L225.529 130.206L229.183 129.093L229.394 129.774C228.224 130.167 227.006 130.541 225.778 130.906L225.73 130.896ZM233.969 128.297L233.739 127.616C234.957 127.204 236.165 126.791 237.364 126.369L237.604 127.05L233.969 128.297ZM76.9286 128.028C75.8256 127.348 74.7419 126.628 73.7157 125.89L74.1377 125.305C75.1543 126.034 76.2189 126.743 77.3122 127.415L76.9286 128.028ZM242.121 125.42L241.872 124.739C243.071 124.298 244.27 123.847 245.459 123.387L245.718 124.058C244.596 124.528 243.378 124.979 242.169 125.429L242.121 125.42ZM69.9848 122.955C69.0066 122.111 68.0667 121.229 67.1651 120.308L67.683 119.809C68.5654 120.701 69.4957 121.583 70.4548 122.408L69.9848 122.955ZM250.235 122.341L249.957 121.679C251.156 121.19 252.335 120.72 253.506 120.212L253.784 120.874C252.614 121.324 251.424 121.814 250.235 122.293V122.341ZM258.195 118.984L257.908 118.323L261.418 116.769L261.706 117.421C260.555 117.901 259.385 118.418 258.195 118.936V118.984ZM63.9522 116.711C63.1373 115.696 62.4181 114.608 61.8038 113.46L62.4368 113.124C63.0291 114.234 63.726 115.284 64.518 116.261L63.9522 116.711ZM266.07 115.407L265.772 114.755C266.933 114.208 268.093 113.661 269.234 113.105L269.541 113.757C268.4 114.266 267.249 114.812 266.07 115.359V115.407ZM273.857 111.638L273.531 110.995L276.955 109.259L277.281 109.902L273.857 111.638ZM60.1734 108.856C60.0119 107.99 59.9317 107.11 59.9336 106.229C59.9336 105.797 59.9336 105.375 59.9912 104.943L60.7009 105.001C60.7009 105.413 60.6529 105.816 60.6529 106.229C60.6541 107.065 60.7279 107.899 60.8735 108.722L60.1734 108.856ZM281.54 107.61L281.204 106.977C282.355 106.363 283.486 105.759 284.589 105.154L284.935 105.787L281.54 107.61ZM289.135 103.466L288.79 102.843L292.128 100.925L292.483 101.548C291.399 102.21 290.286 102.814 289.135 103.486V103.466ZM61.8326 100.407L61.1613 100.138C61.6409 98.931 62.2216 97.7664 62.8972 96.6569L63.511 97.0309C62.8454 98.1114 62.2742 99.2473 61.8038 100.426L61.8326 100.407ZM296.664 99.1505L296.3 98.5271C297.441 97.8557 298.544 97.1939 299.59 96.5609L299.964 97.1748L296.664 99.1505ZM304.059 94.6524L303.675 94.0386C304.845 93.3096 305.929 92.6191 306.926 91.9861L307.31 92.5903C306.294 93.2233 305.21 93.933 304.059 94.6715V94.6524ZM66.2636 93.2233L65.7169 92.7534C66.5129 91.7943 67.3953 90.8352 68.3448 89.8761L68.8531 90.394C67.9132 91.3531 67.05 92.2642 66.2636 93.2233ZM311.31 89.972L310.907 89.3678C312.978 87.9867 314.081 87.2003 314.091 87.2003L314.503 87.7853C314.503 87.7853 313.391 88.5814 311.31 89.972ZM72.3921 87.2387L71.9318 86.6824C72.8909 85.8959 73.9075 85.0903 74.9721 84.3038L75.3941 84.8793C74.3391 85.6658 73.332 86.4522 72.3921 87.2387ZM79.3167 82.1555L78.9235 81.5513C79.9785 80.8703 81.0814 80.1798 82.194 79.5084L82.568 80.1318C81.4555 80.7552 80.3621 81.4746 79.3167 82.1555ZM86.7304 77.7629L86.3852 77.1299C87.4977 76.5353 88.6486 75.9406 89.8091 75.3652L90.1256 76.0078C88.9747 76.5832 87.8334 77.1779 86.7304 77.7629ZM94.4607 73.9841L94.1729 73.3223C95.3622 72.7948 96.561 72.2961 97.7215 71.8262L97.9901 72.4975C96.8296 72.9579 95.6403 73.4566 94.4607 73.9841Z" fill="#263238"/>
<path d="M319.874 70.8187L314.292 87.4876L326.655 77.2925L374.465 58.5137L319.874 70.8187Z" fill="#2A72A8"/>
<path opacity="0.1" d="M319.874 70.8187L314.292 87.4876L326.655 77.2925L374.465 58.5137L319.874 70.8187Z" fill="black"/>
<path d="M328.381 81.1005L314.292 87.488L326.655 77.293L328.381 81.1005Z" fill="#263238"/>
<path d="M326.654 77.2925L374.465 58.5137L335.9 98.2006L326.654 77.2925Z" fill="#2A72A8"/>
<path d="M319.874 70.8186L299.465 58.3984L374.465 58.5135L319.874 70.8186Z" fill="#2A72A8"/>
<path d="M300.807 271.172C300.356 270.73 299.848 270.289 299.426 269.858L299.915 269.33C300.385 269.771 300.874 270.212 301.306 270.654L300.807 271.172Z" fill="#263238"/>
<path d="M294.467 347.189V346.47C295.753 346.47 297.038 346.355 298.304 346.23L298.371 346.949C297.105 347.074 295.801 347.151 294.467 347.189ZM289.672 347.103C288.406 347.036 287.111 346.92 285.836 346.767L285.912 346.057C287.198 346.201 288.483 346.316 289.749 346.393L289.672 347.103ZM303.166 346.211L303.013 345.511C304.288 345.242 305.526 344.926 306.705 344.551L306.916 345.242C305.708 345.616 304.442 345.942 303.157 346.211H303.166ZM281.04 346.048C279.813 345.817 278.537 345.549 277.261 345.252L277.424 344.551C278.69 344.849 279.947 345.108 281.174 345.338L281.04 346.048ZM272.591 344.014C271.373 343.65 270.135 343.257 268.908 342.844L269.138 342.163C270.356 342.576 271.584 342.969 272.792 343.324L272.591 344.014ZM311.453 343.487L311.146 342.835C312.295 342.293 313.41 341.681 314.483 341.003L314.867 341.617C313.759 342.305 312.613 342.93 311.434 343.487H311.453ZM264.381 341.195C263.192 340.725 261.983 340.236 260.804 339.718L261.091 339.066C262.261 339.564 263.46 340.025 264.64 340.523L264.381 341.195ZM318.742 338.672L318.253 338.135C319.19 337.288 320.062 336.371 320.861 335.392L321.418 335.843C320.593 336.853 319.692 337.799 318.723 338.672H318.742ZM256.401 337.713C255.257 337.17 254.106 336.594 252.949 335.987L253.275 335.354C254.435 335.949 255.577 336.514 256.718 337.061L256.401 337.713ZM248.729 333.704C247.597 333.071 246.494 332.419 245.401 331.786L245.765 331.172C246.858 331.824 247.961 332.467 249.084 333.09L248.729 333.704ZM324.132 331.786L323.499 331.441C324.1 330.327 324.617 329.17 325.043 327.979L325.714 328.228C325.269 329.456 324.73 330.649 324.103 331.796L324.132 331.786ZM241.305 329.216C240.222 328.516 239.157 327.796 238.102 327.077L238.514 326.482C239.56 327.202 240.624 327.911 241.699 328.612L241.305 329.216ZM234.179 324.286C233.144 323.519 232.117 322.742 231.11 321.955L231.551 321.39C232.559 322.176 233.575 322.943 234.611 323.701L234.179 324.286ZM326.942 323.519L326.242 323.394C326.447 322.143 326.579 320.882 326.635 319.615H327.354C327.293 320.928 327.146 322.235 326.913 323.528L326.942 323.519ZM227.332 318.963C226.372 318.138 225.356 317.314 224.387 316.479L224.847 315.932C225.807 316.767 226.766 317.592 227.792 318.407L227.332 318.963ZM326.501 314.877C326.376 313.64 326.194 312.365 325.945 311.099L326.654 310.964C326.904 312.259 327.095 313.544 327.211 314.801L326.501 314.877ZM220.771 313.295C219.812 312.432 218.853 311.569 217.894 310.696L218.393 310.168C219.326 311.044 220.266 311.907 221.213 312.758L220.771 313.295ZM214.451 307.387C213.492 306.495 212.619 305.593 211.708 304.692L212.216 304.174C213.127 305.085 214.039 305.977 214.959 306.869L214.451 307.387ZM324.746 306.476C324.391 305.296 323.969 304.078 323.499 302.86L324.17 302.601C324.65 303.838 325.072 305.066 325.436 306.265L324.746 306.476ZM208.275 301.278C207.373 300.366 206.481 299.446 205.589 298.525L206.097 298.026L208.783 300.769L208.275 301.278ZM321.609 298.468C321.072 297.345 320.478 296.194 319.854 295.072L320.478 294.727C321.111 295.859 321.705 297.019 322.262 298.161L321.609 298.468ZM202.261 295.053L199.604 292.262L200.132 291.773L202.789 294.554L202.261 295.053ZM317.409 290.958C316.737 289.903 316.018 288.838 315.27 287.774L315.865 287.361C316.613 288.426 317.332 289.51 318.013 290.574L317.409 290.958ZM196.296 288.781L193.639 285.999L194.166 285.501L196.813 288.282L196.296 288.781ZM312.421 283.928C311.654 282.969 310.839 281.943 310.005 280.945L310.551 280.485C311.395 281.444 312.22 282.499 312.987 283.487L312.421 283.928ZM190.32 282.528C189.429 281.568 188.546 280.686 187.645 279.765L188.163 279.257L190.838 282.029L190.32 282.528ZM306.84 277.368C305.996 276.409 305.123 275.507 304.212 274.577L304.73 274.068C305.641 275.028 306.523 275.987 307.377 276.879L306.84 277.368ZM184.278 276.361L181.564 273.637L182.072 273.129L184.796 275.852L184.278 276.361ZM178.14 270.27L175.368 267.614L175.857 267.086L178.639 269.753L178.14 270.27ZM171.858 264.334C170.899 263.471 169.94 262.607 168.981 261.744L169.46 261.207C170.419 262.07 171.379 262.943 172.338 263.806L171.858 264.334ZM165.423 258.579C164.464 257.745 163.504 256.91 162.545 256.086L163.006 255.529C163.965 256.364 164.972 257.208 165.931 258.042L165.423 258.579ZM158.815 253.017C157.855 252.211 156.829 251.415 155.813 250.609L156.263 250.043C157.28 250.849 158.277 251.655 159.265 252.46L158.815 253.017ZM152.024 247.636C151.065 246.859 149.991 246.092 148.946 245.325L149.377 244.749C150.423 245.516 151.449 246.284 152.456 247.061L152.024 247.636ZM145.061 242.515L141.906 240.318L142.318 239.724C143.383 240.462 144.438 241.191 145.474 241.93L145.061 242.515ZM137.926 237.642C136.861 236.942 135.787 236.242 134.703 235.552L135.087 234.947C136.18 235.638 137.254 236.338 138.319 237.038L137.926 237.642ZM130.627 233.01C129.543 232.348 128.45 231.686 127.337 231.025L127.702 230.411C128.824 231.073 129.917 231.734 131.001 232.396L130.627 233.01ZM123.185 228.617C122.082 227.984 120.969 227.361 119.837 226.699L120.183 226.066C121.314 226.699 122.437 227.323 123.539 227.984L123.185 228.617ZM115.608 224.455C114.486 223.86 113.354 223.275 112.203 222.681L112.529 222.048C113.68 222.633 114.821 223.227 115.944 223.822L115.608 224.455ZM107.935 220.532C106.803 219.966 105.643 219.41 104.482 218.854L104.789 218.202C105.959 218.758 107.11 219.324 108.252 219.88L107.935 220.532ZM100.128 216.821L96.6276 215.238L96.9153 214.586C98.1046 215.104 99.2746 215.631 100.426 216.169L100.128 216.821ZM92.2254 213.32C91.0553 212.821 89.8756 212.361 88.6768 211.833L88.9549 211.162L92.5035 212.658L92.2254 213.32Z" fill="#263238"/>
<path d="M83.9675 209.934L82.1836 209.224L82.4425 208.553L84.236 209.262L83.9675 209.934Z" fill="#263238"/>
<path d="M86.2505 197.917L92.5805 215.324L79.278 204.928L28.4082 186.484L86.2505 197.917Z" fill="#2A72A8"/>
<path opacity="0.1" d="M86.2505 197.917L92.5805 215.324L79.278 204.928L28.4082 186.484L86.2505 197.917Z" fill="black"/>
<path d="M77.5713 208.985L92.581 215.324L79.2785 204.928L77.5713 208.985Z" fill="#263238"/>
<path d="M79.278 204.928L28.4082 186.484L70.1283 227.197L79.278 204.928Z" fill="#2A72A8"/>
<path d="M86.2505 197.917L107.389 184.27L28.4082 186.485L86.2505 197.917Z" fill="#2A72A8"/>
<path d="M303.708 86.0329C307.951 67.7684 296.585 49.5221 278.321 45.2786C260.056 41.035 241.81 52.4012 237.566 70.6656C233.323 88.9301 244.689 107.176 262.954 111.42C281.218 115.664 299.464 104.297 303.708 86.0329Z" fill="#A6A6A6"/>
<path d="M293.806 63.6543H247.463V93.0502H293.806V63.6543Z" fill="white"/>
<path d="M293.805 63.6543C291.935 65.4478 290.027 67.1645 288.137 68.9293C286.248 70.694 284.301 72.3724 282.383 74.0795C280.465 75.7867 278.383 77.6186 276.379 79.3737L276.197 79.5463L270.855 84.1787L270.596 84.3897L270.337 84.1787L265.004 79.5367L264.812 79.3737C262.798 77.6154 260.794 75.8475 258.799 74.0699C256.881 72.3724 254.962 70.646 253.044 68.9293C251.126 67.2125 249.256 65.4478 247.386 63.6543C249.371 65.1888 251.328 66.8001 253.303 68.373C255.279 69.9459 257.226 71.5763 259.173 73.1684C261.34 74.9715 263.511 76.7969 265.685 78.6448L270.548 82.7784C272.168 81.3974 273.789 80.0067 275.41 78.6448C277.578 76.8033 279.748 74.9779 281.922 73.1684C283.841 71.5508 285.797 69.9523 287.792 68.373C289.864 66.8001 291.82 65.1888 293.805 63.6543Z" fill="#DBDBDB"/>
<path d="M265.829 79.3555H265.772L265.043 79.9693C263.882 80.9284 262.693 81.8874 261.475 82.8465C259.998 83.9687 258.492 85.0524 256.977 86.117C255.461 87.1816 253.917 88.2174 252.354 89.2149C250.791 90.2123 249.208 91.2002 247.559 92.0921C248.968 90.8549 250.436 89.7136 251.903 88.5914C253.371 87.4693 254.896 86.3856 256.411 85.3114C257.926 84.2372 259.47 83.211 261.034 82.2039C262.281 81.4079 263.547 80.6215 264.87 79.883L265.781 79.3746L265.829 79.3555Z" fill="#DBDBDB"/>
<path d="M293.69 92.1115C292.06 91.2099 290.468 90.1933 288.895 89.2342C287.322 88.2751 285.797 87.1914 284.263 86.1364C282.728 85.0814 281.242 83.988 279.765 82.8659C278.556 81.9068 277.367 81.0149 276.216 79.9886L275.477 79.3652H275.42H275.487L276.398 79.8831C277.693 80.6216 278.949 81.4081 280.235 82.2041C281.798 83.1632 283.323 84.2566 284.848 85.3116C286.373 86.3665 287.878 87.4599 289.355 88.5916C290.832 89.7233 292.29 90.8742 293.69 92.1115Z" fill="#DBDBDB"/>
<path d="M292.307 70.2269C295.93 68.2523 297.266 63.7145 295.292 60.0913C293.317 56.4682 288.779 55.1318 285.156 57.1064C281.533 59.0809 280.196 63.6188 282.171 67.2419C284.146 70.865 288.683 72.2015 292.307 70.2269Z" fill="#2A72A8"/>
<path d="M287.917 65.3046V59.2144C287.904 59.0993 287.916 58.9828 287.952 58.8726C287.987 58.7623 288.046 58.6608 288.123 58.5747C288.2 58.4885 288.295 58.4195 288.401 58.3724C288.507 58.3252 288.621 58.3008 288.737 58.3008C288.853 58.3008 288.967 58.3252 289.073 58.3724C289.179 58.4195 289.273 58.4885 289.351 58.5747C289.428 58.6608 289.486 58.7623 289.522 58.8726C289.557 58.9828 289.569 59.0993 289.557 59.2144V65.3046C289.569 65.4197 289.557 65.5362 289.522 65.6464C289.486 65.7566 289.428 65.8582 289.351 65.9443C289.273 66.0305 289.179 66.0995 289.073 66.1466C288.967 66.1938 288.853 66.2182 288.737 66.2182C288.621 66.2182 288.507 66.1938 288.401 66.1466C288.295 66.0995 288.2 66.0305 288.123 65.9443C288.046 65.8582 287.987 65.7566 287.952 65.6464C287.916 65.5362 287.904 65.4197 287.917 65.3046ZM288.742 68.9299C288.633 68.9299 288.525 68.9083 288.424 68.8662C288.323 68.8242 288.232 68.7626 288.155 68.685C288.078 68.6074 288.018 68.5153 287.977 68.4141C287.936 68.3129 287.916 68.2046 287.917 68.0955V67.7982C287.904 67.6831 287.916 67.5666 287.952 67.4564C287.987 67.3461 288.046 67.2446 288.123 67.1585C288.2 67.0723 288.295 67.0033 288.401 66.9562C288.507 66.909 288.621 66.8846 288.737 66.8846C288.853 66.8846 288.967 66.909 289.073 66.9562C289.179 67.0033 289.273 67.0723 289.351 67.1585C289.428 67.2446 289.486 67.3461 289.522 67.4564C289.557 67.5666 289.569 67.6831 289.557 67.7982V68.0955C289.56 68.2066 289.54 68.3171 289.498 68.4202C289.456 68.5233 289.394 68.6168 289.315 68.695C289.236 68.7731 289.142 68.8343 289.038 68.8747C288.935 68.9151 288.824 68.9339 288.713 68.9299H288.742Z" fill="white"/>
</svg>
