<svg width="518" height="372" viewBox="0 0 518 372" fill="none" xmlns="http://www.w3.org/2000/svg">
<path d="M498.148 326.188H0V326.437H498.148V326.188Z" fill="#EBEBEB"/>
<path d="M448.234 342.217H415.236V342.466H448.234V342.217Z" fill="#EBEBEB"/>
<path d="M329.994 344.928H321.336V345.177H329.994V344.928Z" fill="#EBEBEB"/>
<path d="M414.24 332.973H395.121V333.222H414.24V332.973Z" fill="#EBEBEB"/>
<path d="M95.2947 334.646H52.2646V334.896H95.2947V334.646Z" fill="#EBEBEB"/>
<path d="M110.477 334.646H104.171V334.896H110.477V334.646Z" fill="#EBEBEB"/>
<path d="M224.315 338.85H130.981V339.099H224.315V338.85Z" fill="#EBEBEB"/>
<path d="M236.122 281.753H43.7473C42.2402 281.75 40.7958 281.15 39.7311 280.083C38.6664 279.016 38.0684 277.571 38.0684 276.064V5.63904C38.0815 4.14064 38.6853 2.70791 39.7486 1.65208C40.8119 0.596242 42.2488 0.00256685 43.7473 0H236.122C237.631 0 239.078 0.59936 240.145 1.66623C241.212 2.73309 241.811 4.18008 241.811 5.68885V276.064C241.811 277.573 241.212 279.02 240.145 280.087C239.078 281.153 237.631 281.753 236.122 281.753ZM43.7473 0.19926C42.3063 0.201899 40.9252 0.77618 39.9072 1.79605C38.8892 2.81592 38.3174 4.19805 38.3174 5.63904V276.064C38.3174 277.505 38.8892 278.887 39.9072 279.907C40.9252 280.927 42.3063 281.501 43.7473 281.504H236.122C237.564 281.501 238.946 280.927 239.966 279.908C240.985 278.888 241.559 277.506 241.562 276.064V5.63904C241.559 4.19713 240.985 2.81503 239.966 1.79544C238.946 0.775856 237.564 0.201894 236.122 0.19926H43.7473Z" fill="#EBEBEB"/>
<path d="M451.633 281.753H259.248C257.74 281.75 256.295 281.15 255.229 280.084C254.162 279.017 253.562 277.572 253.56 276.064V5.63904C253.575 4.13973 254.181 2.70702 255.246 1.65145C256.311 0.595894 257.749 0.00253885 259.248 0H451.633C453.13 0.00518522 454.564 0.600019 455.626 1.65557C456.687 2.71113 457.289 4.14236 457.302 5.63904V276.064C457.302 277.569 456.706 279.013 455.643 280.079C454.581 281.146 453.139 281.747 451.633 281.753ZM259.248 0.19926C257.807 0.201894 256.424 0.775856 255.405 1.79544C254.385 2.81503 253.811 4.19713 253.809 5.63904V276.064C253.811 277.506 254.385 278.888 255.405 279.908C256.424 280.927 257.807 281.501 259.248 281.504H451.633C453.075 281.501 454.457 280.927 455.477 279.908C456.497 278.888 457.07 277.506 457.073 276.064V5.63904C457.07 4.19713 456.497 2.81503 455.477 1.79544C454.457 0.775856 453.075 0.201894 451.633 0.19926H259.248Z" fill="#EBEBEB"/>
<path d="M252.272 102.438C250.719 94.9967 247.775 87.9151 243.594 81.5659L251.067 72.5395L235.126 56.5987L226.099 64.0709C219.755 59.8791 212.677 56.9216 205.237 55.3533L204.141 43.7266H181.505L180.409 55.3533C172.971 56.9064 165.892 59.8506 159.547 64.0311L150.52 56.5589L134.58 72.4996L142.052 81.5261C137.871 87.8753 134.927 94.9568 133.374 102.398L121.737 103.494V126.08L133.374 127.176C134.929 134.617 137.873 141.699 142.052 148.049L134.5 157.115L150.441 173.056L159.467 165.584C165.811 169.768 172.89 172.713 180.33 174.261L181.425 185.898H204.021L205.117 174.261C212.56 172.711 219.642 169.767 225.99 165.584L235.016 173.056L250.957 157.115L243.485 148.089C247.664 141.739 250.608 134.657 252.163 127.216L263.799 126.12V103.534L252.272 102.438ZM223.38 114.822C223.38 120.872 221.586 126.785 218.225 131.815C214.864 136.845 210.087 140.765 204.498 143.08C198.909 145.395 192.759 146.001 186.826 144.821C180.893 143.641 175.443 140.728 171.165 136.45C166.888 132.173 163.975 126.723 162.795 120.789C161.614 114.856 162.22 108.706 164.535 103.117C166.85 97.5285 170.77 92.7516 175.8 89.3907C180.83 86.0298 186.744 84.236 192.793 84.236C196.811 84.2334 200.79 85.0227 204.503 86.5587C208.215 88.0948 211.589 90.3475 214.43 93.1881C217.272 96.0287 219.526 99.4014 221.063 103.114C222.6 106.826 223.391 110.804 223.389 114.822H223.38Z" fill="#E0E0E0"/>
<path d="M317.07 210.866L317.817 219.185H334.047L334.834 210.826C340.179 209.712 345.266 207.599 349.828 204.599L356.314 209.969L367.801 198.482L362.431 191.996C365.433 187.435 367.546 182.348 368.658 177.002L377.017 176.215V160.025L368.658 159.238C367.546 153.892 365.433 148.804 362.431 144.244L367.801 137.758L356.314 126.28L349.828 131.65C345.269 128.643 340.181 126.527 334.834 125.414L334.047 117.055H317.817L317.03 125.414C311.683 126.529 306.596 128.645 302.036 131.65L295.55 126.28L284.072 137.758L289.442 144.244C286.437 148.804 284.321 153.891 283.206 159.238L274.847 160.025V176.255L283.206 177.042C284.321 182.388 286.437 187.476 289.442 192.036L284.072 198.522L295.55 210.009L302.036 204.639C306.611 207.642 311.711 209.755 317.07 210.866ZM325.977 190.113C321.627 190.115 317.374 188.826 313.757 186.41C310.14 183.993 307.322 180.558 305.659 176.539C303.995 172.519 303.562 168.097 304.414 163.831C305.266 159.565 307.364 155.649 310.443 152.576C313.523 149.504 317.444 147.414 321.712 146.572C325.98 145.73 330.401 146.173 334.417 147.846C338.432 149.518 341.861 152.344 344.269 155.967C346.678 159.589 347.957 163.845 347.945 168.195C347.929 174.012 345.608 179.585 341.49 183.693C337.372 187.802 331.794 190.111 325.977 190.113Z" fill="#E0E0E0"/>
<path d="M110.102 290.838L110.5 295.102H118.78L119.188 290.848C121.913 290.274 124.505 289.193 126.83 287.66L130.137 290.4L135.996 284.552L133.256 281.244C134.787 278.916 135.866 276.32 136.434 273.592L140.698 273.194V264.915L136.434 264.516C135.866 261.788 134.787 259.192 133.256 256.865L135.996 253.557L130.137 247.699L126.83 250.438C124.505 248.909 121.912 247.831 119.188 247.26L118.78 242.996H110.5L110.102 247.26C107.378 247.831 104.785 248.909 102.46 250.438L99.1525 247.699L93.2943 253.557L96.0341 256.865C94.4979 259.19 93.4193 261.787 92.8559 264.516L88.5918 264.915V273.194L92.8559 273.592C93.4193 276.322 94.4979 278.919 96.0341 281.244L93.2943 284.552L99.1525 290.4L102.46 287.66C104.783 289.194 107.376 290.272 110.102 290.838ZM114.645 280.258C112.428 280.258 110.261 279.6 108.418 278.369C106.575 277.137 105.138 275.387 104.29 273.339C103.441 271.29 103.22 269.037 103.652 266.863C104.084 264.688 105.152 262.691 106.719 261.124C108.287 259.556 110.284 258.489 112.458 258.056C114.633 257.624 116.886 257.846 118.934 258.694C120.982 259.542 122.733 260.979 123.964 262.822C125.196 264.665 125.853 266.832 125.853 269.049C125.853 270.521 125.563 271.979 125 273.339C124.437 274.698 123.611 275.934 122.57 276.975C121.53 278.016 120.294 278.841 118.934 279.404C117.574 279.968 116.117 280.258 114.645 280.258Z" fill="#F0F0F0"/>
<path d="M407.736 270.157L408.065 273.664H414.88L415.209 270.157C417.454 269.687 419.59 268.798 421.505 267.537L424.225 269.798L429.047 264.976L426.786 262.256C428.049 260.342 428.938 258.205 429.406 255.96L432.913 255.631V248.816L429.406 248.487C428.936 246.242 428.047 244.106 426.786 242.191L429.047 239.471L424.225 234.649L421.505 236.91C419.59 235.649 417.454 234.76 415.209 234.29L414.88 230.783H408.065L407.736 234.29C405.491 234.76 403.355 235.649 401.44 236.91L398.72 234.649L393.898 239.471L396.159 242.191C394.898 244.106 394.009 246.242 393.539 248.487L390.032 248.816V255.631L393.539 255.96C394.007 258.205 394.896 260.342 396.159 262.256L393.898 265.016L398.72 269.838L401.44 267.576C403.358 268.824 405.494 269.699 407.736 270.157ZM411.473 261.449C409.648 261.449 407.864 260.908 406.347 259.894C404.83 258.881 403.647 257.44 402.949 255.754C402.251 254.068 402.068 252.213 402.424 250.424C402.78 248.634 403.659 246.99 404.949 245.7C406.239 244.41 407.883 243.531 409.673 243.175C411.462 242.819 413.317 243.002 415.003 243.7C416.689 244.398 418.13 245.581 419.143 247.098C420.157 248.615 420.698 250.399 420.698 252.224C420.696 254.67 419.723 257.015 417.993 258.744C416.264 260.474 413.919 261.447 411.473 261.449Z" fill="#F0F0F0"/>
<path d="M230.873 324.545H250.201L251.138 314.582C257.508 313.265 263.57 310.75 269.001 307.169L276.723 313.565L290.372 299.886L283.946 292.175C287.522 286.745 290.037 280.687 291.358 274.321L301.321 273.385V254.057L291.358 253.12C290.035 246.758 287.52 240.703 283.946 235.276L290.332 227.555L276.663 213.886L269.001 220.272C263.573 216.699 257.519 214.181 251.158 212.85L250.221 202.887H230.893L229.956 212.85C223.591 214.179 217.534 216.697 212.103 220.272L204.381 213.886L190.692 227.555L197.089 235.276C193.507 240.701 190.988 246.756 189.666 253.12L179.703 254.057V273.385L189.666 274.321C190.986 280.689 193.505 286.748 197.089 292.175L190.692 299.886L204.361 313.555L212.083 307.159C217.51 310.742 223.569 313.261 229.936 314.582L230.873 324.545ZM240.537 289.883C235.363 289.883 230.304 288.349 226.002 285.474C221.699 282.599 218.346 278.513 216.366 273.733C214.386 268.952 213.867 263.692 214.877 258.616C215.886 253.541 218.378 248.88 222.037 245.221C225.696 241.562 230.358 239.07 235.433 238.061C240.508 237.051 245.768 237.569 250.549 239.549C255.33 241.53 259.416 244.883 262.291 249.185C265.165 253.488 266.7 258.546 266.7 263.721C266.705 267.16 266.032 270.566 264.72 273.745C263.407 276.924 261.481 279.813 259.051 282.246C256.621 284.68 253.735 286.611 250.558 287.928C247.381 289.245 243.976 289.923 240.537 289.923V289.883Z" fill="#E0E0E0"/>
<path d="M338.899 289.185L337.903 287.192C336.298 284.141 333.548 281.851 330.257 280.825C326.965 279.8 323.402 280.122 320.348 281.722L315.685 284.163C312.635 285.772 310.347 288.523 309.322 291.816C308.297 295.108 308.618 298.672 310.216 301.728L311.212 303.671L307.964 305.384L319.67 327.681L353.853 309.748L342.147 287.441L338.899 289.185ZM331.765 306.241L333.808 310.137L331.337 311.442L329.295 307.546C328.823 307.528 328.365 307.387 327.965 307.137C327.564 306.887 327.236 306.537 327.013 306.122C326.823 305.8 326.7 305.442 326.653 305.071C326.605 304.7 326.633 304.323 326.736 303.964C326.838 303.604 327.013 303.269 327.248 302.978C327.484 302.688 327.777 302.449 328.108 302.275C328.439 302.101 328.802 301.997 329.175 301.968C329.548 301.939 329.923 301.986 330.277 302.106C330.631 302.226 330.958 302.417 331.236 302.667C331.514 302.918 331.738 303.222 331.895 303.561C332.111 303.98 332.212 304.448 332.19 304.919C332.167 305.389 332.021 305.845 331.765 306.241ZM333.758 291.914L316.333 301.06L315.336 299.068C314.452 297.373 314.275 295.398 314.845 293.573C315.414 291.749 316.684 290.224 318.375 289.334L323.028 286.893C324.716 286.005 326.687 285.821 328.511 286.381C330.335 286.941 331.863 288.199 332.762 289.882L333.758 291.914Z" fill="#F0F0F0"/>
<path d="M99.9395 170.716L100.667 168.643C101.793 165.385 101.583 161.813 100.082 158.71C98.5804 155.606 95.9105 153.224 92.6565 152.085L87.6751 150.361C84.413 149.237 80.838 149.453 77.7352 150.962C74.6324 152.472 72.2555 155.151 71.1266 158.411L70.3993 160.494L66.9421 159.288L58.6729 183.09L95.1473 195.723L103.407 171.921L99.9395 170.716ZM82.6238 177.202L81.1792 181.326L78.539 180.41L79.9836 176.255C79.6741 175.901 79.4625 175.472 79.3698 175.01C79.2772 174.549 79.3068 174.071 79.4556 173.625C79.6974 172.931 80.2048 172.362 80.8662 172.043C81.5276 171.723 82.2889 171.679 82.9825 171.921C83.6761 172.163 84.2453 172.67 84.5648 173.332C84.8843 173.993 84.9279 174.754 84.6862 175.448C84.5254 175.895 84.2505 176.292 83.8886 176.6C83.5268 176.907 83.0908 177.115 82.6238 177.202ZM94.4698 168.823L75.8789 162.397L76.5962 160.314C77.2269 158.511 78.5466 157.03 80.2664 156.197C81.9862 155.365 83.9659 155.247 85.7721 155.871L90.7536 157.594C92.559 158.223 94.041 159.542 94.8742 161.263C95.7074 162.983 95.8235 164.964 95.1971 166.77L94.4698 168.823Z" fill="#F0F0F0"/>
<path d="M426.346 159.079L424.214 158.402C427.134 157.884 429.795 156.404 431.774 154.196C433.753 151.988 434.935 149.181 435.132 146.223C435.328 143.264 434.527 140.326 432.857 137.876C431.188 135.426 428.745 133.606 425.92 132.708C423.094 131.809 420.049 131.883 417.271 132.918C414.493 133.953 412.141 135.889 410.593 138.418C409.044 140.946 408.387 143.92 408.727 146.865C409.067 149.811 410.384 152.557 412.468 154.666L410.346 153.988C407.236 152.995 403.859 153.277 400.956 154.771C398.053 156.265 395.862 158.85 394.864 161.959L392.731 168.674L432.225 181.217L434.387 174.552C434.877 173.008 435.057 171.383 434.919 169.769C434.78 168.155 434.324 166.585 433.577 165.148C432.83 163.71 431.807 162.434 430.566 161.393C429.325 160.352 427.892 159.566 426.346 159.079Z" fill="#F0F0F0"/>
<path d="M283.139 38.7551L281.814 39.313C283.028 37.8396 283.713 36.0018 283.76 34.0933C283.806 32.1848 283.212 30.3156 282.072 28.7844C280.932 27.2533 279.311 26.1484 277.469 25.6463C275.628 25.1442 273.671 25.2739 271.911 26.0146C270.151 26.7553 268.691 28.0644 267.763 29.7326C266.835 31.4009 266.492 33.332 266.79 35.2177C267.089 37.1033 268.01 38.8347 269.408 40.1351C270.806 41.4355 272.599 42.23 274.501 42.3916L273.176 42.9495C271.243 43.7718 269.714 45.3235 268.919 47.2674C268.124 49.2113 268.129 51.3904 268.932 53.3309L270.685 57.5154L295.284 47.1738L293.52 42.9993C292.698 41.0669 291.146 39.537 289.202 38.7423C287.258 37.9476 285.079 37.9522 283.139 38.7551Z" fill="#F0F0F0"/>
<path d="M105.111 66.7506L103.706 66.4617C105.548 65.9395 107.161 64.815 108.289 63.2679C109.416 61.7208 109.992 59.8404 109.925 57.9274C109.857 56.0144 109.151 54.1791 107.918 52.715C106.684 51.2509 104.996 50.2425 103.122 49.8509C101.249 49.4593 99.2977 49.7073 97.5814 50.555C95.8652 51.4028 94.4827 52.8015 93.655 54.5275C92.8272 56.2535 92.6021 58.2072 93.0154 60.0762C93.4288 61.9453 94.4568 63.6218 95.9352 64.8378L94.5304 64.5488C92.466 64.1307 90.32 64.5468 88.5614 65.7061C86.8029 66.8654 85.5747 68.6737 85.1453 70.7358L84.2188 75.1693L110.332 80.6091L111.258 76.1756C111.689 74.111 111.284 71.9597 110.132 70.1931C108.98 68.4265 107.174 67.1886 105.111 66.7506Z" fill="#F0F0F0"/>
<path d="M324.074 371.181C430.76 371.181 517.246 366.132 517.246 359.903C517.246 353.674 430.76 348.625 324.074 348.625C217.388 348.625 130.902 353.674 130.902 359.903C130.902 366.132 217.388 371.181 324.074 371.181Z" fill="#F5F5F5"/>
<path d="M367.811 78.1289H189.563C185.536 78.1289 182.271 81.3941 182.271 85.4218V304.278C182.271 308.306 185.536 311.571 189.563 311.571H367.811C371.839 311.571 375.104 308.306 375.104 304.278V85.4218C375.104 81.3941 371.839 78.1289 367.811 78.1289Z" fill="#2A72A8"/>
<path opacity="0.6" d="M367.811 78.1289H189.563C185.536 78.1289 182.271 81.3941 182.271 85.4218V304.278C182.271 308.306 185.536 311.571 189.563 311.571H367.811C371.839 311.571 375.104 308.306 375.104 304.278V85.4218C375.104 81.3941 371.839 78.1289 367.811 78.1289Z" fill="white"/>
<path d="M397.083 320.001C397.083 320.001 390.926 320.818 388.296 320.001C385.666 319.184 386.652 307.248 383.972 306.999C377.785 306.431 378.841 322.282 381.471 325.62C384.102 328.958 397.641 327.543 397.641 327.543L397.083 320.001Z" fill="#2A72A8"/>
<path opacity="0.2" d="M397.083 320.001C397.083 320.001 390.926 320.818 388.296 320.001C385.666 319.184 386.652 307.248 383.972 306.999C377.785 306.431 378.841 322.282 381.471 325.62C384.102 328.958 397.641 327.543 397.641 327.543L397.083 320.001Z" fill="white"/>
<path d="M397.592 348.106C397.592 348.106 388.476 267.167 399.356 266.241C410.235 265.314 412.865 293.848 408.661 347.08L397.592 348.106Z" fill="#2A72A8"/>
<path opacity="0.3" d="M397.592 348.106C397.592 348.106 388.476 267.167 399.356 266.241C410.235 265.314 412.865 293.848 408.661 347.08L397.592 348.106Z" fill="white"/>
<path d="M384.808 338.312H420.605L417.616 361.207H387.797L384.808 338.312Z" fill="#263238"/>
<path d="M408.402 292.772C408.402 292.772 418.365 293.3 418.614 292.772C418.863 292.244 418.913 280.816 423.117 281.464C427.322 282.112 425.479 295.93 423.117 297.534C420.756 299.138 408.402 300.005 408.402 300.005C408.402 300.005 406.748 294.904 408.402 292.772Z" fill="#2A72A8"/>
<path opacity="0.4" d="M408.402 292.772C408.402 292.772 418.365 293.3 418.614 292.772C418.863 292.244 418.913 280.816 423.117 281.464C427.322 282.112 425.479 295.93 423.117 297.534C420.756 299.138 408.402 300.005 408.402 300.005C408.402 300.005 406.748 294.904 408.402 292.772Z" fill="white"/>
<path d="M402.115 340.733C399.913 319.143 397.522 297.444 398.07 275.715C398.229 274.051 398.339 265.901 401.108 267.146C401.464 267.443 401.735 267.828 401.895 268.262C402.743 270.883 403.278 273.596 403.489 276.342C405.582 297.982 405.422 319.761 405.313 341.47C404.904 319.781 404.874 298.022 402.752 276.432C402.473 273.792 400.879 262.205 399.255 271.162C398.721 275.764 398.524 280.399 398.667 285.03C399.036 303.631 400.54 322.192 402.115 340.733Z" fill="#2A72A8"/>
<path d="M409.648 295.492C412.557 295.213 417.738 295.034 420.229 294.386C420.229 290.969 421.434 286.326 422.66 282.689C422.311 284.313 421.972 286.675 421.663 288.378C421.269 290.43 421.029 292.508 420.946 294.595C420.787 295.083 420.179 295.173 419.79 295.273C416.419 295.729 413.006 295.803 409.618 295.492H409.648Z" fill="#2A72A8"/>
<path d="M409.647 298.132C413.802 297.365 418.435 297.066 422.51 296.09C423.566 294.416 423.506 292.055 423.805 290.112C424.044 287.94 424.223 285.758 424.433 283.576C424.547 285.77 424.547 287.968 424.433 290.162C424.395 292.119 424.093 294.063 423.536 295.94C423.42 296.295 423.184 296.598 422.868 296.797C418.522 297.65 414.106 298.097 409.677 298.132H409.647Z" fill="#2A72A8"/>
<path d="M394.016 322.213C391.146 322.273 388.177 322.412 385.398 321.456C384.712 320.852 384.278 320.013 384.182 319.104C383.826 317.293 383.646 315.451 383.644 313.605C383.603 311.773 383.666 309.94 383.834 308.115C383.973 309.938 384.083 311.762 384.242 313.575C384.362 315.374 384.595 317.165 384.939 318.935C385.149 319.752 385.348 320.778 386.015 320.928C388.632 321.582 391.297 322.019 393.986 322.233L394.016 322.213Z" fill="#2A72A8"/>
<path d="M381.998 309.559L382.645 315.926C383.044 318.705 382.974 321.734 384.08 324.305C384.254 324.436 384.445 324.543 384.648 324.623C387.637 325.62 390.895 325.689 394.013 326.058C391.874 326.169 389.73 326.126 387.597 325.929C386.122 325.679 383.612 325.729 383.103 323.936C381.868 319.243 381.938 314.332 381.998 309.52V309.559Z" fill="#2A72A8"/>
<path d="M359.665 84.2573C362.772 78.8431 367.9 74.8832 373.925 73.2468C379.949 71.6105 386.376 72.4316 391.795 75.5298L390.799 77.2135L397.474 75.4002L395.661 68.7251L394.665 70.3988C388.616 66.9324 381.534 65.724 374.678 66.9887C367.823 68.2533 361.638 71.9089 357.224 77.3052C352.811 82.7015 350.454 89.4886 350.575 96.4589C350.695 103.429 353.284 110.131 357.881 115.372L362.325 111.476C359.101 107.782 357.112 103.173 356.635 98.2928C356.158 93.4129 357.217 88.5059 359.665 84.2573Z" fill="#263238"/>
<path d="M402.507 76.9043L398.024 80.7002C401.609 84.9242 403.59 90.2772 403.617 95.8175C403.645 101.358 401.717 106.73 398.174 110.99C394.631 115.249 389.7 118.122 384.247 119.104C378.795 120.086 373.17 119.114 368.364 116.358L369.36 114.674L362.655 116.567L364.469 123.242L365.465 121.558C371.482 124.981 378.512 126.176 385.322 124.933C392.132 123.69 398.287 120.089 402.706 114.761C407.126 109.433 409.529 102.719 409.492 95.7962C409.456 88.8739 406.983 82.1854 402.507 76.9043Z" fill="#263238"/>
<g opacity="0.6">
<path d="M359.667 84.2573C362.774 78.8431 367.902 74.8832 373.927 73.2468C379.951 71.6105 386.378 72.4316 391.797 75.5298L390.801 77.2135L397.476 75.4002L395.663 68.7251L394.667 70.3988C388.618 66.9324 381.536 65.724 374.68 66.9887C367.825 68.2533 361.64 71.9089 357.226 77.3052C352.813 82.7015 350.456 89.4886 350.577 96.4589C350.697 103.429 353.286 110.131 357.883 115.372L362.327 111.476C359.103 107.782 357.114 103.173 356.637 98.2928C356.16 93.4129 357.219 88.5059 359.667 84.2573Z" fill="white"/>
<path d="M402.509 76.9043L398.026 80.7002C401.611 84.9242 403.591 90.2772 403.619 95.8175C403.647 101.358 401.719 106.73 398.176 110.99C394.633 115.249 389.702 118.122 384.249 119.104C378.796 120.086 373.172 119.114 368.366 116.358L369.362 114.674L362.657 116.567L364.47 123.242L365.467 121.558C371.484 124.981 378.514 126.176 385.324 124.933C392.134 123.69 398.289 120.089 402.708 114.761C407.128 109.433 409.531 102.719 409.494 95.7962C409.458 88.8739 406.985 82.1854 402.509 76.9043Z" fill="white"/>
</g>
<path d="M375.825 68.0373H369.329V48.1114C369.329 44.4464 367.874 40.9316 365.282 38.3401C362.691 35.7486 359.176 34.2927 355.511 34.2927C351.846 34.2927 348.331 35.7486 345.74 38.3401C343.148 40.9316 341.692 44.4464 341.692 48.1114V68.0373H335.196V48.1114C335.196 42.7236 337.337 37.5566 341.146 33.7469C344.956 29.9371 350.123 27.7969 355.511 27.7969C360.899 27.7969 366.066 29.9371 369.875 33.7469C373.685 37.5566 375.825 42.7236 375.825 48.1114V68.0373Z" fill="#263238"/>
<g opacity="0.3">
<path d="M375.826 68.0373H369.33V48.1114C369.33 44.4464 367.875 40.9316 365.283 38.3401C362.692 35.7486 359.177 34.2927 355.512 34.2927C351.847 34.2927 348.332 35.7486 345.741 38.3401C343.149 40.9316 341.693 44.4464 341.693 48.1114V68.0373H335.197V48.1114C335.197 42.7236 337.338 37.5566 341.147 33.7469C344.957 29.9371 350.124 27.7969 355.512 27.7969C360.899 27.7969 366.067 29.9371 369.876 33.7469C373.686 37.5566 375.826 42.7236 375.826 48.1114V68.0373Z" fill="white"/>
</g>
<path d="M383.267 62.9657V95.5745C383.267 96.0717 383.169 96.564 382.978 97.0233C382.788 97.4827 382.509 97.9 382.158 98.2516C381.806 98.6031 381.389 98.882 380.929 99.0722C380.47 99.2625 379.978 99.3604 379.481 99.3604H331.519C331.023 99.3591 330.532 99.2602 330.075 99.0692C329.617 98.8782 329.202 98.599 328.852 98.2474C328.502 97.8959 328.225 97.4789 328.037 97.0203C327.848 96.5616 327.752 96.0704 327.753 95.5745V62.9657C327.752 62.4698 327.848 61.9786 328.037 61.5199C328.225 61.0613 328.502 60.6443 328.852 60.2928C329.202 59.9412 329.617 59.662 330.075 59.471C330.532 59.28 331.023 59.1811 331.519 59.1798H379.481C380.108 59.1753 380.726 59.3332 381.274 59.6381C381.877 59.959 382.382 60.4384 382.733 61.0248C383.084 61.6112 383.269 62.2822 383.267 62.9657Z" fill="#2A72A8"/>
<path opacity="0.2" d="M381.274 59.6381V91.5893C381.274 92.086 381.176 92.5779 380.986 93.0366C380.795 93.4954 380.516 93.9121 380.165 94.2629C379.813 94.6136 379.395 94.8915 378.936 95.0807C378.477 95.2699 377.985 95.3666 377.488 95.3653H329.526C328.907 95.3672 328.297 95.213 327.753 94.917V62.9657C327.752 62.4698 327.848 61.9786 328.037 61.5199C328.225 61.0613 328.502 60.6443 328.852 60.2928C329.202 59.9412 329.617 59.662 330.075 59.471C330.532 59.28 331.023 59.1811 331.519 59.1798H379.481C380.108 59.1753 380.726 59.3332 381.274 59.6381Z" fill="white"/>
<path opacity="0.5" d="M362.652 75.1803C362.634 73.88 362.261 72.6094 361.574 71.5054C360.887 70.4014 359.912 69.5059 358.753 68.9154C357.594 68.325 356.297 68.0621 354.999 68.155C353.702 68.2479 352.455 68.693 351.393 69.4425C350.33 70.192 349.492 71.2174 348.969 72.408C348.446 73.5987 348.258 74.9095 348.426 76.1991C348.593 77.4887 349.109 78.7082 349.918 79.726C350.728 80.7439 351.799 81.5215 353.018 81.9751L352.689 90.6628H358.398L357.551 82.1444C359.036 81.6847 360.334 80.7594 361.253 79.5053C362.171 78.2512 362.662 76.7348 362.652 75.1803Z" fill="black"/>
<path d="M311.303 145.395L314.61 156.025L317.908 145.395H311.303Z" fill="#2A72A8"/>
<path d="M341.647 120H287.558C282.832 120 279 123.832 279 128.558V140.085C279 144.812 282.832 148.644 287.558 148.644H341.647C346.374 148.644 350.205 144.812 350.205 140.085V128.558C350.205 123.832 346.374 120 341.647 120Z" fill="#2A72A8"/>
<path d="M295.738 134.308L297.611 135.364L297.122 136.221L295.219 135.105V137.247H294.223V135.105L292.32 136.221L291.832 135.364L293.725 134.308L291.832 133.312L292.32 132.435L294.223 133.551V131.379H295.219V133.501L297.122 132.385L297.611 133.262L295.738 134.308Z" fill="white"/>
<path d="M302.354 134.308L304.227 135.364L303.739 136.221L301.836 135.105V137.247H300.899V135.105L298.976 136.221L298.488 135.364L300.381 134.308L298.488 133.312L298.976 132.435L300.879 133.551V131.379H301.816V133.501L303.719 132.385L304.207 133.262L302.354 134.308Z" fill="white"/>
<path d="M308.941 134.307L310.814 135.363L310.325 136.22L308.423 135.104V137.246H307.426V135.104L305.523 136.22L305.035 135.363L306.918 134.307L305.035 133.311L305.523 132.434L307.426 133.55V131.428H308.423V133.55L310.325 132.434L310.814 133.311L308.941 134.307Z" fill="white"/>
<path d="M315.586 134.307L317.459 135.363L316.971 136.22L315.068 135.104V137.246H314.122V135.104L312.219 136.22L311.73 135.363L313.613 134.307L311.73 133.311L312.219 132.434L314.122 133.55V131.428H315.068V133.55L316.971 132.434L317.459 133.311L315.586 134.307Z" fill="white"/>
<path d="M322.198 134.307L324.071 135.363L323.583 136.22L321.67 135.104V137.246H320.674V135.104L318.9 136.22L318.402 135.363L320.295 134.307L318.402 133.311L318.9 132.434L320.803 133.55V131.428H321.8V133.55L323.713 132.434L324.201 133.311L322.198 134.307Z" fill="white"/>
<path d="M328.803 134.307L330.686 135.363L330.198 136.22L328.285 135.104V137.246H327.339V135.104L325.426 136.22L324.938 135.363L326.83 134.307L324.938 133.311L325.426 132.434L327.339 133.55V131.428H328.285V133.55L330.198 132.434L330.686 133.311L328.803 134.307Z" fill="white"/>
<path d="M335.421 134.308L337.294 135.364L336.806 136.221L334.903 135.105V137.247H333.907V135.105L332.004 136.221L331.516 135.364L333.409 134.308L331.516 133.312L332.004 132.435L333.907 133.551V131.379H334.903V133.501L336.806 132.385L337.294 133.262L335.421 134.308Z" fill="white"/>
<path d="M219.595 148.079L212.481 146.465L209.632 150.34L216.476 154.545L219.595 148.079Z" fill="#B55B52"/>
<path d="M179.443 112.143C180.191 114.903 179.443 120.502 175.737 118.51C172.031 116.517 178.198 107.381 179.443 112.143Z" fill="#263238"/>
<path d="M179.448 117.792C179.51 117.812 179.576 117.812 179.637 117.792C179.723 117.767 179.795 117.709 179.838 117.63C179.881 117.552 179.891 117.46 179.866 117.374C179.726 116.86 179.464 116.387 179.101 115.997C178.738 115.606 178.287 115.31 177.784 115.132C177.698 115.11 177.607 115.121 177.53 115.164C177.452 115.207 177.393 115.277 177.366 115.361C177.341 115.447 177.351 115.539 177.394 115.618C177.437 115.696 177.509 115.754 177.595 115.78C177.993 115.92 178.35 116.158 178.634 116.471C178.918 116.784 179.119 117.163 179.219 117.573C179.236 117.626 179.266 117.673 179.306 117.711C179.346 117.749 179.395 117.777 179.448 117.792Z" fill="#263238"/>
<path d="M146.615 199.543L225.59 115.795C226.016 115.344 226.526 114.981 227.092 114.727C227.658 114.473 228.268 114.333 228.888 114.315C229.508 114.296 230.125 114.4 230.705 114.621C231.284 114.841 231.815 115.174 232.266 115.599L234.172 117.397C235.084 118.256 235.616 119.442 235.653 120.694C235.69 121.946 235.228 123.161 234.368 124.073L155.393 207.821L146.615 199.543Z" fill="#263238"/>
<path opacity="0.6" d="M146.615 199.543L225.59 115.795C226.016 115.344 226.526 114.981 227.092 114.727C227.658 114.473 228.268 114.333 228.888 114.315C229.508 114.296 230.125 114.4 230.705 114.621C231.284 114.841 231.815 115.174 232.266 115.599L234.172 117.397C235.084 118.256 235.616 119.442 235.653 120.694C235.69 121.946 235.228 123.161 234.368 124.073L155.393 207.821L146.615 199.543Z" fill="white"/>
<path opacity="0.2" d="M232.848 116.158L234.173 117.404C234.624 117.828 234.987 118.337 235.242 118.902C235.496 119.467 235.636 120.076 235.654 120.695C235.673 121.314 235.569 121.931 235.349 122.509C235.129 123.088 234.797 123.618 234.373 124.069L155.396 207.827L154.081 206.582L233.057 122.823C233.482 122.372 233.813 121.842 234.032 121.263C234.251 120.683 234.354 120.066 234.334 119.447C234.315 118.828 234.174 118.219 233.919 117.655C233.664 117.091 233.3 116.582 232.848 116.158Z" fill="black"/>
<path d="M207.648 148.588L222.284 162.396L224.187 160.374L222.294 158.59L225.303 155.392L224.197 154.346L228.72 149.554L229.826 150.6L232.655 147.601L234.548 149.395L236.511 147.302L235.405 146.256L238.235 143.247L236.013 141.155L237.866 139.193L241.204 142.331L244.591 138.744L229.956 124.936L207.648 148.588Z" fill="#263238"/>
<path opacity="0.6" d="M207.648 148.588L222.284 162.396L224.187 160.374L222.294 158.59L225.303 155.392L224.197 154.346L228.72 149.554L229.826 150.6L232.655 147.601L234.548 149.395L236.511 147.302L235.405 146.256L238.235 143.247L236.013 141.155L237.866 139.193L241.204 142.331L244.591 138.744L229.956 124.936L207.648 148.588Z" fill="white"/>
<g opacity="0.2">
<path opacity="0.6" d="M222.871 159.141L220.971 161.156L222.29 162.4L224.19 160.385L222.871 159.141Z" fill="black"/>
<path opacity="0.6" d="M229.831 150.6L228.725 149.544L224.202 154.346L225.308 155.392L222.299 158.59L220.974 157.345L223.992 154.147L222.877 153.1L227.4 148.298L228.516 149.354L231.335 146.355L232.66 147.601L229.831 150.6Z" fill="black"/>
<path opacity="0.6" d="M234.084 145.001L236.924 142.002L238.249 143.247L235.409 146.256L236.525 147.302L234.552 149.394L233.237 148.149L235.2 146.057L234.084 145.001Z" fill="black"/>
<path opacity="0.6" d="M236.54 137.944L234.688 139.908L236.007 141.152L237.859 139.188L236.54 137.944Z" fill="black"/>
<path opacity="0.6" d="M243.272 137.506L239.882 141.102L241.201 142.346L244.591 138.75L243.272 137.506Z" fill="black"/>
</g>
<path d="M223.489 116.482L199.278 142.156C198.878 142.58 198.898 143.248 199.322 143.648L208.107 151.933C208.531 152.333 209.2 152.313 209.6 151.889L233.811 126.215C234.211 125.791 234.191 125.122 233.767 124.722L224.982 116.438C224.557 116.038 223.889 116.057 223.489 116.482Z" fill="#263238"/>
<path d="M155.853 234.897C154.016 236.846 151.812 238.415 149.369 239.512C146.925 240.609 144.289 241.215 141.612 241.293C138.934 241.372 136.268 240.922 133.764 239.97C131.26 239.018 128.969 237.582 127.02 235.744L120.405 229.507C118.456 227.67 116.888 225.467 115.79 223.023C114.693 220.58 114.087 217.944 114.009 215.266C113.93 212.589 114.38 209.922 115.332 207.419C116.284 204.915 117.72 202.623 119.558 200.675C121.397 198.718 123.604 197.143 126.053 196.041C128.502 194.939 131.144 194.332 133.828 194.253C136.513 194.174 139.186 194.626 141.695 195.583C144.204 196.539 146.5 197.982 148.45 199.828L155.056 206.065C157.002 207.905 158.566 210.111 159.659 212.557C160.752 215.002 161.353 217.638 161.427 220.316C161.501 222.993 161.046 225.659 160.09 228.161C159.134 230.663 157.694 232.952 155.853 234.897Z" fill="#263238"/>
<path d="M148.251 227.723C147.337 228.694 146.24 229.476 145.024 230.023C143.807 230.57 142.495 230.872 141.161 230.912C139.828 230.952 138.5 230.728 137.253 230.255C136.006 229.781 134.865 229.066 133.894 228.151L127.638 222.173C126.667 221.258 125.886 220.161 125.34 218.944C124.794 217.728 124.492 216.415 124.454 215.082C124.415 213.748 124.639 212.421 125.113 211.174C125.588 209.927 126.304 208.787 127.219 207.817C128.133 206.845 129.229 206.064 130.445 205.517C131.661 204.97 132.973 204.668 134.306 204.629C135.639 204.59 136.966 204.815 138.212 205.29C139.458 205.765 140.597 206.482 141.566 207.398L147.882 213.376C149.833 215.23 150.967 217.783 151.036 220.473C151.105 223.163 150.104 225.771 148.251 227.723Z" fill="white"/>
<path opacity="0.5" d="M223.489 116.482L199.278 142.156C198.878 142.58 198.898 143.248 199.322 143.648L208.107 151.933C208.531 152.333 209.2 152.313 209.6 151.889L233.811 126.215C234.211 125.791 234.191 125.122 233.767 124.722L224.982 116.438C224.557 116.038 223.889 116.057 223.489 116.482Z" fill="white"/>
<g opacity="0.5">
<path d="M155.854 234.897C154.017 236.846 151.813 238.415 149.37 239.512C146.926 240.609 144.29 241.215 141.613 241.293C138.935 241.372 136.269 240.922 133.765 239.97C131.261 239.018 128.97 237.582 127.021 235.744L120.406 229.507C118.457 227.67 116.889 225.467 115.791 223.023C114.694 220.58 114.088 217.944 114.01 215.266C113.931 212.589 114.381 209.922 115.333 207.419C116.285 204.915 117.721 202.623 119.559 200.675C121.398 198.718 123.605 197.143 126.054 196.041C128.503 194.939 131.145 194.332 133.829 194.253C136.514 194.174 139.187 194.626 141.696 195.583C144.205 196.539 146.501 197.982 148.451 199.828L155.057 206.065C157.003 207.905 158.567 210.111 159.66 212.557C160.753 215.002 161.353 217.638 161.428 220.316C161.502 222.993 161.047 225.659 160.091 228.161C159.135 230.663 157.695 232.952 155.854 234.897Z" fill="white"/>
<path d="M148.252 227.725C147.338 228.696 146.241 229.478 145.025 230.025C143.808 230.572 142.496 230.874 141.162 230.914C139.829 230.954 138.501 230.73 137.254 230.257C136.007 229.783 134.866 229.068 133.895 228.153L127.639 222.175C126.668 221.26 125.887 220.163 125.341 218.946C124.795 217.73 124.493 216.417 124.455 215.084C124.416 213.75 124.64 212.423 125.114 211.176C125.589 209.929 126.305 208.789 127.22 207.819C128.134 206.847 129.23 206.066 130.446 205.519C131.662 204.972 132.974 204.67 134.307 204.631C135.639 204.592 136.967 204.817 138.213 205.292C139.459 205.767 140.598 206.484 141.567 207.4L147.883 213.378C149.834 215.232 150.968 217.785 151.037 220.475C151.106 223.165 150.105 225.773 148.252 227.725Z" fill="white"/>
</g>
<path opacity="0.2" d="M231.123 122.227L233.773 124.717C233.873 124.816 233.952 124.933 234.006 125.062C234.06 125.191 234.088 125.33 234.088 125.47C234.088 125.61 234.06 125.748 234.006 125.877C233.952 126.006 233.873 126.123 233.773 126.222L209.563 151.886C209.466 151.986 209.35 152.065 209.221 152.119C209.093 152.173 208.955 152.2 208.816 152.2C208.677 152.2 208.539 152.173 208.411 152.119C208.283 152.065 208.166 151.986 208.069 151.886L205.429 149.396C205.626 149.591 205.893 149.7 206.171 149.7C206.449 149.7 206.716 149.591 206.913 149.396L231.123 123.721C231.223 123.624 231.302 123.507 231.356 123.379C231.409 123.251 231.437 123.113 231.437 122.974C231.437 122.835 231.409 122.697 231.356 122.569C231.302 122.44 231.223 122.324 231.123 122.227Z" fill="black"/>
<g opacity="0.2">
<path d="M139.593 205.556L141.586 207.419C139.606 205.707 137.043 204.826 134.429 204.958C131.815 205.089 129.353 206.224 127.556 208.126C125.758 210.028 124.763 212.55 124.779 215.166C124.794 217.783 125.818 220.293 127.638 222.174L125.645 220.301C123.686 218.451 122.542 215.899 122.464 213.206C122.387 210.512 123.382 207.899 125.232 205.939C127.081 203.98 129.634 202.836 132.327 202.758C135.02 202.681 137.634 203.676 139.593 205.526V205.556Z" fill="black"/>
<path d="M153.034 204.24L155.027 206.113C158.838 209.855 161.03 214.942 161.133 220.282C161.236 225.622 159.24 230.789 155.575 234.675C151.911 238.56 146.868 240.853 141.531 241.062C136.194 241.271 130.988 239.38 127.031 235.793L125.038 233.93C128.983 237.601 134.219 239.563 139.605 239.387C144.99 239.211 150.087 236.912 153.784 232.992C157.481 229.072 159.477 223.848 159.336 218.461C159.196 213.075 156.93 207.962 153.034 204.24Z" fill="black"/>
</g>
<g opacity="0.2">
<path d="M139.593 205.556L141.586 207.419C139.606 205.707 137.043 204.826 134.429 204.958C131.815 205.089 129.353 206.224 127.556 208.126C125.758 210.028 124.763 212.55 124.779 215.166C124.794 217.783 125.818 220.293 127.638 222.174L125.645 220.301C123.686 218.451 122.542 215.899 122.464 213.206C122.387 210.512 123.382 207.899 125.232 205.939C127.081 203.98 129.634 202.836 132.327 202.758C135.02 202.681 137.634 203.676 139.593 205.526V205.556Z" fill="black"/>
<path d="M139.593 205.556L141.586 207.419C139.606 205.707 137.043 204.826 134.429 204.958C131.815 205.089 129.353 206.224 127.556 208.126C125.758 210.028 124.763 212.55 124.779 215.166C124.794 217.783 125.818 220.293 127.638 222.174L125.645 220.301C123.686 218.451 122.542 215.899 122.464 213.206C122.387 210.512 123.382 207.899 125.232 205.939C127.081 203.98 129.634 202.836 132.327 202.758C135.02 202.681 137.634 203.676 139.593 205.526V205.556Z" fill="black"/>
</g>
<path d="M344 176H214V205H344V176Z" fill="#2A72A8"/>
<path d="M252.384 196.24C251.541 196.24 250.781 196.093 250.104 195.8C249.432 195.507 248.877 195.088 248.44 194.544C248.008 193.995 247.733 193.344 247.616 192.592L249.616 192.288C249.787 192.971 250.136 193.499 250.664 193.872C251.197 194.245 251.811 194.432 252.504 194.432C252.915 194.432 253.301 194.368 253.664 194.24C254.027 194.112 254.32 193.925 254.544 193.68C254.773 193.435 254.888 193.133 254.888 192.776C254.888 192.616 254.861 192.469 254.808 192.336C254.755 192.197 254.675 192.075 254.568 191.968C254.467 191.861 254.333 191.765 254.168 191.68C254.008 191.589 253.821 191.512 253.608 191.448L250.632 190.568C250.376 190.493 250.099 190.395 249.8 190.272C249.507 190.144 249.227 189.971 248.96 189.752C248.699 189.528 248.483 189.245 248.312 188.904C248.147 188.557 248.064 188.131 248.064 187.624C248.064 186.883 248.251 186.261 248.624 185.76C249.003 185.253 249.509 184.875 250.144 184.624C250.784 184.373 251.493 184.251 252.272 184.256C253.061 184.261 253.765 184.397 254.384 184.664C255.003 184.925 255.52 185.307 255.936 185.808C256.352 186.309 256.645 186.915 256.816 187.624L254.744 187.984C254.659 187.579 254.493 187.235 254.248 186.952C254.008 186.664 253.712 186.445 253.36 186.296C253.013 186.147 252.643 186.067 252.248 186.056C251.864 186.051 251.507 186.109 251.176 186.232C250.851 186.349 250.587 186.52 250.384 186.744C250.187 186.968 250.088 187.229 250.088 187.528C250.088 187.811 250.173 188.043 250.344 188.224C250.515 188.4 250.725 188.541 250.976 188.648C251.232 188.749 251.491 188.835 251.752 188.904L253.816 189.48C254.099 189.555 254.416 189.656 254.768 189.784C255.12 189.912 255.459 190.091 255.784 190.32C256.109 190.549 256.376 190.851 256.584 191.224C256.797 191.597 256.904 192.072 256.904 192.648C256.904 193.245 256.779 193.771 256.528 194.224C256.283 194.672 255.949 195.045 255.528 195.344C255.107 195.643 254.624 195.867 254.08 196.016C253.541 196.165 252.976 196.24 252.384 196.24ZM262.564 196.24C261.689 196.24 260.921 196.051 260.26 195.672C259.598 195.293 259.081 194.768 258.708 194.096C258.34 193.424 258.156 192.651 258.156 191.776C258.156 190.832 258.337 190.013 258.7 189.32C259.062 188.621 259.566 188.08 260.212 187.696C260.857 187.312 261.604 187.12 262.452 187.12C263.348 187.12 264.108 187.331 264.732 187.752C265.361 188.168 265.828 188.757 266.132 189.52C266.436 190.283 266.55 191.181 266.476 192.216H264.564V191.512C264.558 190.573 264.393 189.888 264.068 189.456C263.742 189.024 263.23 188.808 262.532 188.808C261.742 188.808 261.156 189.053 260.772 189.544C260.388 190.029 260.196 190.741 260.196 191.68C260.196 192.555 260.388 193.232 260.772 193.712C261.156 194.192 261.716 194.432 262.452 194.432C262.926 194.432 263.334 194.328 263.676 194.12C264.022 193.907 264.289 193.6 264.476 193.2L266.38 193.776C266.049 194.555 265.537 195.16 264.844 195.592C264.156 196.024 263.396 196.24 262.564 196.24ZM259.588 192.216V190.76H265.532V192.216H259.588ZM272.013 196.24C271.122 196.24 270.362 196.043 269.733 195.648C269.103 195.248 268.621 194.704 268.285 194.016C267.954 193.328 267.786 192.549 267.781 191.68C267.786 190.795 267.959 190.011 268.301 189.328C268.647 188.64 269.138 188.101 269.773 187.712C270.407 187.317 271.162 187.12 272.037 187.12C273.018 187.12 273.847 187.368 274.525 187.864C275.207 188.355 275.653 189.027 275.861 189.88L273.941 190.4C273.791 189.936 273.543 189.576 273.197 189.32C272.85 189.059 272.455 188.928 272.013 188.928C271.511 188.928 271.098 189.048 270.773 189.288C270.447 189.523 270.207 189.848 270.053 190.264C269.898 190.68 269.821 191.152 269.821 191.68C269.821 192.501 270.005 193.165 270.373 193.672C270.741 194.179 271.287 194.432 272.013 194.432C272.525 194.432 272.927 194.315 273.221 194.08C273.519 193.845 273.743 193.507 273.893 193.064L275.861 193.504C275.594 194.384 275.127 195.061 274.461 195.536C273.794 196.005 272.978 196.24 272.013 196.24ZM280.704 196.248C280.064 196.248 279.536 196.141 279.12 195.928C278.704 195.715 278.373 195.443 278.128 195.112C277.882 194.781 277.701 194.429 277.584 194.056C277.466 193.683 277.389 193.331 277.352 193C277.32 192.664 277.304 192.392 277.304 192.184V187.36H279.256V191.52C279.256 191.787 279.274 192.088 279.312 192.424C279.349 192.755 279.434 193.075 279.568 193.384C279.706 193.688 279.909 193.939 280.176 194.136C280.448 194.333 280.813 194.432 281.272 194.432C281.517 194.432 281.76 194.392 282 194.312C282.24 194.232 282.456 194.096 282.648 193.904C282.845 193.707 283.002 193.437 283.12 193.096C283.237 192.755 283.296 192.323 283.296 191.8L284.44 192.288C284.44 193.024 284.296 193.691 284.008 194.288C283.725 194.885 283.306 195.363 282.752 195.72C282.197 196.072 281.514 196.248 280.704 196.248ZM283.528 196V193.32H283.296V187.36H285.232V196H283.528ZM287.479 196V187.36H289.183V189.464L288.975 189.192C289.082 188.904 289.223 188.643 289.399 188.408C289.581 188.168 289.797 187.971 290.047 187.816C290.261 187.672 290.495 187.56 290.751 187.48C291.013 187.395 291.279 187.344 291.551 187.328C291.823 187.307 292.087 187.317 292.343 187.36V189.16C292.087 189.085 291.791 189.061 291.455 189.088C291.125 189.115 290.826 189.208 290.559 189.368C290.293 189.512 290.074 189.696 289.903 189.92C289.738 190.144 289.615 190.4 289.535 190.688C289.455 190.971 289.415 191.277 289.415 191.608V196H287.479ZM297.642 196.24C296.767 196.24 295.999 196.051 295.338 195.672C294.676 195.293 294.159 194.768 293.786 194.096C293.418 193.424 293.234 192.651 293.234 191.776C293.234 190.832 293.415 190.013 293.778 189.32C294.14 188.621 294.644 188.08 295.29 187.696C295.935 187.312 296.682 187.12 297.53 187.12C298.426 187.12 299.186 187.331 299.81 187.752C300.439 188.168 300.906 188.757 301.21 189.52C301.514 190.283 301.628 191.181 301.554 192.216H299.642V191.512C299.636 190.573 299.471 189.888 299.146 189.456C298.82 189.024 298.308 188.808 297.61 188.808C296.82 188.808 296.234 189.053 295.85 189.544C295.466 190.029 295.274 190.741 295.274 191.68C295.274 192.555 295.466 193.232 295.85 193.712C296.234 194.192 296.794 194.432 297.53 194.432C298.004 194.432 298.412 194.328 298.754 194.12C299.1 193.907 299.367 193.6 299.554 193.2L301.458 193.776C301.127 194.555 300.615 195.16 299.922 195.592C299.234 196.024 298.474 196.24 297.642 196.24ZM294.666 192.216V190.76H300.61V192.216H294.666ZM306.803 196.24C306.008 196.24 305.315 196.04 304.723 195.64C304.131 195.24 303.672 194.696 303.347 194.008C303.021 193.32 302.859 192.544 302.859 191.68C302.859 190.805 303.021 190.027 303.347 189.344C303.677 188.656 304.144 188.115 304.747 187.72C305.349 187.32 306.059 187.12 306.875 187.12C307.696 187.12 308.384 187.32 308.939 187.72C309.499 188.115 309.923 188.656 310.211 189.344C310.499 190.032 310.643 190.811 310.643 191.68C310.643 192.539 310.499 193.315 310.211 194.008C309.923 194.696 309.493 195.24 308.923 195.64C308.352 196.04 307.645 196.24 306.803 196.24ZM307.099 194.512C307.616 194.512 308.032 194.395 308.347 194.16C308.667 193.92 308.899 193.587 309.043 193.16C309.192 192.733 309.267 192.24 309.267 191.68C309.267 191.115 309.192 190.621 309.043 190.2C308.899 189.773 308.672 189.443 308.363 189.208C308.053 188.968 307.653 188.848 307.163 188.848C306.645 188.848 306.219 188.976 305.883 189.232C305.547 189.483 305.299 189.824 305.139 190.256C304.979 190.683 304.899 191.157 304.899 191.68C304.899 192.208 304.976 192.688 305.131 193.12C305.291 193.547 305.533 193.885 305.859 194.136C306.184 194.387 306.597 194.512 307.099 194.512ZM309.267 196V189.936H309.027V184.48H310.971V196H309.267Z" fill="white"/>
</svg>
